<?xml version="1.0" standalone="no"?><!DOCTYPE svg PUBLIC "-//W3C//DTD SVG 1.1//EN" "http://www.w3.org/Graphics/SVG/1.1/DTD/svg11.dtd"><svg t="1692014236121" class="icon" viewBox="0 0 1024 1024" version="1.1" xmlns="http://www.w3.org/2000/svg" p-id="3365" xmlns:xlink="http://www.w3.org/1999/xlink" width="200" height="200"><path d="M742.4 139.264q27.648 24.576 44.032 41.472t25.088 28.672 10.752 19.968 2.048 14.336l0 16.384-150.528 0q-11.264 0-18.944-7.68t-12.8-17.92-7.68-20.992-2.56-17.92l0-125.952 2.048 0q9.216 0 17.408 2.048t19.968 9.728 28.672 21.504 42.496 36.352zM567.296 197.632q0 19.456 6.144 41.984t19.456 41.472 33.792 31.744 48.128 12.8l149.504 0 0 513.024q0 29.696-11.776 53.248t-31.232 40.448-43.008 26.112-46.08 9.216l-441.344 0q-19.456 0-42.496-11.264t-43.008-29.696-33.28-42.496-13.312-49.664l0-632.832q0-21.504 10.24-45.056t27.136-42.496 38.4-31.744 45.056-12.8l327.68 0 0 128zM485.376 659.456q12.288-12.288 13.312-32.768t-11.264-31.744l-167.936-168.96q-12.288-12.288-30.208-12.288t-30.208 12.288q-12.288 13.312-12.288 31.232t12.288 30.208l137.216 139.264-137.216 138.24q-12.288 12.288-12.288 30.208t12.288 31.232q12.288 12.288 30.208 12.288t30.208-12.288zM695.296 773.12l-192.512 0 0 64.512 192.512 0 0-64.512z" p-id="3366"></path></svg>