<?xml version="1.0" standalone="no"?><!DOCTYPE svg PUBLIC "-//W3C//DTD SVG 1.1//EN" "http://www.w3.org/Graphics/SVG/1.1/DTD/svg11.dtd"><svg t="1692014259175" class="icon" viewBox="0 0 1024 1024" version="1.1" xmlns="http://www.w3.org/2000/svg" p-id="5954" xmlns:xlink="http://www.w3.org/1999/xlink" width="200" height="200"><path d="M310.272 198.656q19.456 0 37.376 7.68t30.72 20.48 20.48 30.208 7.68 36.864q0 39.936-28.16 67.584t-68.096 27.648q-19.456 0-36.864-7.168t-30.208-20.48-20.48-30.208-7.68-37.376q0-19.456 7.68-36.864t20.48-30.208 30.208-20.48 36.864-7.68zM875.52 49.152q52.224 0 74.24 29.184t22.016 76.288l0 735.232q0 14.336-6.656 29.184t-18.432 26.112-27.136 18.432-33.792 7.168l-754.688 0q-31.744 0-55.808-25.6t-24.064-61.44l0-749.568q0-36.864 20.48-60.928t54.272-24.064l749.568 0zM879.616 168.96q0-11.264-8.704-19.968t-20.992-8.704l-677.888 0q-12.288 0-20.48 8.704t-8.192 19.968l0 1.024 0 366.592q10.24 12.288 27.136 28.16t39.936 29.696 52.224 23.552 65.024 9.728q55.296 0 97.28-17.92t79.36-44.032 73.216-57.344 78.336-58.368 96.768-46.08 126.976-22.016l0-212.992z" p-id="5955"></path></svg>