# Blender v3.2.1 OBJ File: 'LAZIENKA.blend'
# www.blender.org
o Circle.015_Circle.017
v -0.998708 1.011490 3.229145
v -1.007041 1.011490 3.229965
v -1.015053 1.011490 3.232396
v -1.022437 1.011490 3.236343
v -1.028909 1.011490 3.241654
v -1.034221 1.011490 3.248127
v -1.038168 1.011490 3.255511
v -1.040598 1.011490 3.263523
v -1.041419 1.011490 3.271855
v -1.040598 1.011490 3.280188
v -1.038168 1.011490 3.288200
v -1.034221 1.011490 3.295584
v -1.028909 1.011490 3.302056
v -1.022437 1.011490 3.307368
v -1.015053 1.011490 3.311315
v -1.007041 1.011490 3.313745
v -0.998708 1.011490 3.314566
v -0.990376 1.011490 3.313745
v -0.982364 1.011490 3.311315
v -0.974980 1.011490 3.307368
v -0.968507 1.011490 3.302056
v -0.963196 1.011490 3.295584
v -0.959249 1.011490 3.288200
v -0.956819 1.011490 3.280188
v -0.955998 1.011490 3.271855
v -0.956819 1.011490 3.263523
v -0.959249 1.011490 3.255511
v -0.963196 1.011490 3.248127
v -0.968508 1.011490 3.241654
v -0.974980 1.011490 3.236343
v -0.982364 1.011490 3.232396
v -0.990376 1.011490 3.229965
v -0.998708 1.011490 3.230323
v -1.006811 1.011490 3.231121
v -1.014602 1.011490 3.233485
v -1.021782 1.011490 3.237323
v -1.028076 1.011490 3.242488
v -1.033241 1.011490 3.248781
v -1.037079 1.011490 3.255962
v -1.039443 1.011490 3.263753
v -1.040241 1.011490 3.271855
v -1.039443 1.011490 3.279958
v -1.037079 1.011490 3.287749
v -1.033241 1.011490 3.294929
v -1.028076 1.011490 3.301223
v -1.021782 1.011490 3.306388
v -1.014602 1.011490 3.310226
v -1.006811 1.011490 3.312589
v -0.998708 1.011490 3.313387
v -0.990606 1.011490 3.312589
v -0.982815 1.011490 3.310226
v -0.975634 1.011490 3.306388
v -0.969341 1.011490 3.301223
v -0.964176 1.011490 3.294929
v -0.960338 1.011490 3.287749
v -0.957974 1.011490 3.279958
v -0.957176 1.011490 3.271855
v -0.957974 1.011490 3.263753
v -0.960338 1.011490 3.255962
v -0.964176 1.011490 3.248781
v -0.969341 1.011490 3.242488
v -0.975634 1.011490 3.237323
v -0.982815 1.011490 3.233485
v -0.990606 1.011490 3.231121
v -0.998708 1.287258 3.229145
v -1.007041 1.287258 3.229965
v -1.015053 1.287258 3.232396
v -1.022437 1.287258 3.236343
v -1.028909 1.287258 3.241654
v -1.034221 1.287258 3.248127
v -1.038168 1.287258 3.255511
v -1.040598 1.287258 3.263523
v -1.041419 1.287258 3.271855
v -1.040598 1.287258 3.280188
v -1.038168 1.287258 3.288200
v -1.034221 1.287258 3.295584
v -1.028909 1.287258 3.302056
v -1.022437 1.287258 3.307368
v -1.015053 1.287258 3.311315
v -1.007041 1.287258 3.313745
v -0.998708 1.287258 3.314566
v -0.990376 1.287258 3.313745
v -0.982364 1.287258 3.311315
v -0.974980 1.287258 3.307368
v -0.968507 1.287258 3.302056
v -0.963196 1.287258 3.295584
v -0.959249 1.287258 3.288200
v -0.956819 1.287258 3.280188
v -0.955998 1.287258 3.271855
v -0.956819 1.287258 3.263523
v -0.959249 1.287258 3.255511
v -0.963196 1.287258 3.248127
v -0.968508 1.287258 3.241654
v -0.974980 1.287258 3.236343
v -0.982364 1.287258 3.232396
v -0.990376 1.287258 3.229965
v -0.998708 1.287258 3.230323
v -1.006811 1.287258 3.231121
v -1.014602 1.287258 3.233485
v -1.021782 1.287258 3.237323
v -1.028076 1.287258 3.242488
v -1.033241 1.287258 3.248781
v -1.037079 1.287258 3.255962
v -1.039443 1.287258 3.263753
v -1.040241 1.287258 3.271855
v -1.039443 1.287258 3.279958
v -1.037079 1.287258 3.287749
v -1.033241 1.287258 3.294929
v -1.028076 1.287258 3.301223
v -1.021782 1.287258 3.306388
v -1.014602 1.287258 3.310226
v -1.006811 1.287258 3.312589
v -0.998708 1.287258 3.313387
v -0.990606 1.287258 3.312589
v -0.982815 1.287258 3.310226
v -0.975634 1.287258 3.306388
v -0.969341 1.287258 3.301223
v -0.964176 1.287258 3.294929
v -0.960338 1.287258 3.287749
v -0.957974 1.287258 3.279958
v -0.957176 1.287258 3.271855
v -0.957974 1.287258 3.263753
v -0.960338 1.287258 3.255962
v -0.964176 1.287258 3.248781
v -0.969341 1.287258 3.242488
v -0.975634 1.287258 3.237323
v -0.982815 1.287258 3.233485
v -0.990606 1.287258 3.231121
vt 1.000000 0.000000
vt 0.000000 1.000000
vt 0.000000 0.000000
vt 1.000000 0.000000
vt 0.000000 1.000000
vt 0.000000 0.000000
vt 0.000000 0.000000
vt 1.000000 1.000000
vt 0.000000 1.000000
vt 1.000000 0.000000
vt 0.000000 1.000000
vt 0.000000 0.000000
vt 1.000000 0.000000
vt 0.000000 1.000000
vt 0.000000 0.000000
vt 0.000000 0.000000
vt 1.000000 1.000000
vt 0.000000 1.000000
vt 1.000000 0.000000
vt 0.000000 1.000000
vt 0.000000 0.000000
vt 0.000000 0.000000
vt 1.000000 1.000000
vt 0.000000 1.000000
vt 1.000000 0.000000
vt 0.000000 1.000000
vt 0.000000 0.000000
vt 1.000000 0.000000
vt 0.000000 1.000000
vt 0.000000 0.000000
vt 1.000000 0.000000
vt 0.000000 1.000000
vt 0.000000 0.000000
vt 1.000000 0.000000
vt 0.000000 1.000000
vt 0.000000 0.000000
vt 0.000000 0.000000
vt 1.000000 1.000000
vt 0.000000 1.000000
vt 1.000000 0.000000
vt 0.000000 1.000000
vt 0.000000 0.000000
vt 1.000000 0.000000
vt 0.000000 0.000000
vt 1.000000 0.000000
vt 0.000000 1.000000
vt 0.000000 0.000000
vt 1.000000 0.000000
vt 0.000000 1.000000
vt 0.000000 0.000000
vt 1.000000 0.000000
vt 0.000000 1.000000
vt 0.000000 0.000000
vt 0.000000 0.000000
vt 1.000000 1.000000
vt 0.000000 1.000000
vt 1.000000 0.000000
vt 0.000000 1.000000
vt 0.000000 0.000000
vt 0.000000 0.000000
vt 1.000000 1.000000
vt 0.000000 1.000000
vt 1.000000 0.000000
vt 0.000000 1.000000
vt 0.000000 0.000000
vt 1.000000 0.000000
vt 0.000000 1.000000
vt 0.000000 0.000000
vt 1.000000 0.000000
vt 0.000000 1.000000
vt 0.000000 0.000000
vt 1.000000 0.000000
vt 0.000000 1.000000
vt 0.000000 0.000000
vt 0.000000 1.000000
vt 0.000000 0.000000
vt 1.000000 1.000000
vt 0.000000 1.000000
vt 0.000000 0.000000
vt 1.000000 1.000000
vt 0.000000 1.000000
vt 1.000000 0.000000
vt 0.000000 1.000000
vt 0.000000 0.000000
vt 1.000000 0.000000
vt 0.000000 1.000000
vt 0.000000 0.000000
vt 1.000000 0.000000
vt 0.000000 1.000000
vt 0.000000 0.000000
vt 1.000000 0.000000
vt 0.000000 1.000000
vt 0.000000 0.000000
vt 1.000000 0.000000
vt 0.000000 1.000000
vt 0.000000 0.000000
vt 1.000000 0.000000
vt 0.000000 1.000000
vt 0.000000 0.000000
vt 0.000000 0.000000
vt 1.000000 1.000000
vt 0.000000 1.000000
vt 1.000000 0.000000
vt 0.000000 1.000000
vt 0.000000 0.000000
vt 1.000000 0.000000
vt 0.000000 1.000000
vt 0.000000 0.000000
vt 0.000000 0.000000
vt 1.000000 1.000000
vt 0.000000 1.000000
vt 0.000000 0.000000
vt 1.000000 1.000000
vt 0.000000 1.000000
vt 0.000000 0.000000
vt 1.000000 1.000000
vt 0.000000 1.000000
vt 1.000000 0.000000
vt 0.000000 1.000000
vt 0.000000 0.000000
vt 1.000000 0.000000
vt 0.000000 1.000000
vt 0.000000 0.000000
vt 1.000000 0.000000
vt 0.000000 1.000000
vt 0.000000 0.000000
vt 1.000000 0.000000
vt 0.000000 1.000000
vt 0.000000 0.000000
vt 0.000000 0.000000
vt 1.000000 1.000000
vt 0.000000 1.000000
vt 1.000000 0.000000
vt 0.000000 1.000000
vt 0.000000 0.000000
vt 0.000000 1.000000
vt 0.000000 0.000000
vt 0.000000 0.000000
vt 1.000000 1.000000
vt 0.000000 1.000000
vt 0.000000 0.000000
vt 1.000000 1.000000
vt 0.000000 1.000000
vt 1.000000 0.000000
vt 0.000000 1.000000
vt 0.000000 0.000000
vt 1.000000 0.000000
vt 0.000000 1.000000
vt 0.000000 0.000000
vt 1.000000 0.000000
vt 0.000000 1.000000
vt 0.000000 0.000000
vt 0.000000 0.000000
vt 1.000000 1.000000
vt 0.000000 1.000000
vt 1.000000 0.000000
vt 0.000000 1.000000
vt 0.000000 0.000000
vt 1.000000 0.000000
vt 0.000000 1.000000
vt 0.000000 0.000000
vt 0.000000 0.000000
vt 1.000000 1.000000
vt 0.000000 1.000000
vt 0.000000 0.000000
vt 1.000000 1.000000
vt 0.000000 1.000000
vt 1.000000 0.000000
vt 0.000000 0.000000
vt 1.000000 1.000000
vt 0.000000 1.000000
vt 1.000000 0.000000
vt 0.000000 1.000000
vt 0.000000 0.000000
vt 1.000000 0.000000
vt 0.000000 1.000000
vt 0.000000 0.000000
vt 1.000000 0.000000
vt 0.000000 1.000000
vt 0.000000 0.000000
vt 0.000000 0.000000
vt 1.000000 1.000000
vt 0.000000 1.000000
vt 0.000000 0.000000
vt 1.000000 1.000000
vt 0.000000 1.000000
vt 1.000000 0.000000
vt 0.000000 1.000000
vt 0.000000 0.000000
vt 1.000000 0.000000
vt 0.000000 1.000000
vt 0.000000 0.000000
vt 1.000000 0.000000
vt 0.000000 1.000000
vt 0.000000 0.000000
vt 1.000000 0.000000
vt 0.000000 1.000000
vt 0.000000 0.000000
vt 1.000000 0.000000
vt 0.000000 1.000000
vt 0.000000 0.000000
vt 1.000000 0.000000
vt 0.000000 1.000000
vt 0.000000 0.000000
vt 1.000000 0.000000
vt 0.000000 1.000000
vt 0.000000 0.000000
vt 1.000000 0.000000
vt 0.000000 1.000000
vt 0.000000 0.000000
vt 1.000000 0.000000
vt 0.000000 1.000000
vt 0.000000 0.000000
vt 1.000000 0.000000
vt 0.000000 1.000000
vt 0.000000 0.000000
vt 1.000000 0.000000
vt 0.000000 1.000000
vt 0.000000 0.000000
vt 1.000000 0.000000
vt 0.000000 1.000000
vt 1.000000 0.000000
vt 0.000000 1.000000
vt 1.000000 0.000000
vt 0.000000 1.000000
vt 1.000000 0.000000
vt 0.000000 1.000000
vt 1.000000 0.000000
vt 0.000000 1.000000
vt 1.000000 0.000000
vt 0.000000 1.000000
vt 1.000000 0.000000
vt 0.000000 1.000000
vt 1.000000 0.000000
vt 0.000000 1.000000
vt 1.000000 0.000000
vt 0.000000 1.000000
vt 1.000000 0.000000
vt 0.000000 1.000000
vt 1.000000 0.000000
vt 0.000000 1.000000
vt 1.000000 0.000000
vt 0.000000 1.000000
vt 0.000000 0.000000
vt 1.000000 0.000000
vt 0.000000 1.000000
vt 0.000000 0.000000
vt 1.000000 0.000000
vt 0.000000 1.000000
vt 0.000000 0.000000
vt 1.000000 0.000000
vt 0.000000 1.000000
vt 0.000000 0.000000
vt 1.000000 0.000000
vt 0.000000 1.000000
vt 0.000000 0.000000
vt 1.000000 0.000000
vt 0.000000 1.000000
vt 0.000000 0.000000
vt 1.000000 0.000000
vt 0.000000 1.000000
vt 0.000000 0.000000
vt 1.000000 0.000000
vt 0.000000 1.000000
vt 0.000000 0.000000
vt 1.000000 0.000000
vt 0.000000 1.000000
vt 0.000000 0.000000
vt 1.000000 0.000000
vt 0.000000 1.000000
vt 0.000000 0.000000
vt 1.000000 0.000000
vt 0.000000 1.000000
vt 1.000000 0.000000
vt 0.000000 1.000000
vt 1.000000 0.000000
vt 0.000000 1.000000
vt 1.000000 0.000000
vt 0.000000 1.000000
vt 1.000000 0.000000
vt 0.000000 1.000000
vt 1.000000 0.000000
vt 0.000000 1.000000
vt 1.000000 0.000000
vt 0.000000 1.000000
vt 1.000000 0.000000
vt 0.000000 1.000000
vt 1.000000 0.000000
vt 0.000000 1.000000
vt 1.000000 0.000000
vt 0.000000 1.000000
vt 1.000000 0.000000
vt 0.000000 1.000000
vt 0.000000 0.000000
vt 1.000000 0.000000
vt 0.000000 1.000000
vt 0.000000 0.000000
vt 1.000000 0.000000
vt 0.000000 1.000000
vt 0.000000 0.000000
vt 1.000000 0.000000
vt 0.000000 1.000000
vt 0.000000 0.000000
vt 1.000000 0.000000
vt 0.000000 1.000000
vt 0.000000 0.000000
vt 1.000000 0.000000
vt 0.000000 1.000000
vt 0.000000 0.000000
vt 1.000000 0.000000
vt 0.000000 1.000000
vt 0.000000 0.000000
vt 1.000000 0.000000
vt 0.000000 1.000000
vt 0.000000 0.000000
vt 1.000000 0.000000
vt 0.000000 1.000000
vt 0.000000 0.000000
vt 1.000000 0.000000
vt 0.000000 1.000000
vt 0.000000 0.000000
vt 0.000000 1.000000
vt 1.000000 0.000000
vt 0.000000 1.000000
vt 1.000000 0.000000
vt 0.000000 1.000000
vt 1.000000 0.000000
vt 0.000000 1.000000
vt 1.000000 0.000000
vt 0.000000 1.000000
vt 1.000000 0.000000
vt 0.000000 1.000000
vt 1.000000 0.000000
vt 0.000000 1.000000
vt 1.000000 0.000000
vt 0.000000 1.000000
vt 1.000000 0.000000
vt 0.000000 1.000000
vt 1.000000 0.000000
vt 0.000000 1.000000
vt 1.000000 0.000000
vt 1.000000 1.000000
vt 1.000000 1.000000
vt 1.000000 0.000000
vt 1.000000 1.000000
vt 1.000000 1.000000
vt 1.000000 0.000000
vt 1.000000 1.000000
vt 1.000000 0.000000
vt 1.000000 1.000000
vt 1.000000 1.000000
vt 1.000000 1.000000
vt 1.000000 1.000000
vt 1.000000 0.000000
vt 1.000000 1.000000
vt 1.000000 1.000000
vt 1.000000 1.000000
vt 1.000000 1.000000
vt 1.000000 0.000000
vt 1.000000 1.000000
vt 1.000000 0.000000
vt 1.000000 1.000000
vt 1.000000 1.000000
vt 1.000000 1.000000
vt 1.000000 1.000000
vt 1.000000 1.000000
vt 1.000000 0.000000
vt 1.000000 0.000000
vt 1.000000 1.000000
vt 1.000000 1.000000
vt 1.000000 1.000000
vt 1.000000 1.000000
vt 1.000000 1.000000
vt 1.000000 1.000000
vt 1.000000 0.000000
vt 1.000000 1.000000
vt 1.000000 1.000000
vt 1.000000 0.000000
vt 1.000000 0.000000
vt 1.000000 0.000000
vt 1.000000 1.000000
vt 1.000000 1.000000
vt 1.000000 1.000000
vt 1.000000 1.000000
vt 1.000000 0.000000
vt 1.000000 1.000000
vt 1.000000 0.000000
vt 1.000000 0.000000
vt 1.000000 1.000000
vt 1.000000 1.000000
vt 1.000000 1.000000
vt 1.000000 0.000000
vt 1.000000 1.000000
vt 1.000000 1.000000
vt 1.000000 0.000000
vt 1.000000 0.000000
vt 1.000000 1.000000
vt 1.000000 0.000000
vt 1.000000 1.000000
vt 1.000000 1.000000
vt 1.000000 1.000000
vt 1.000000 0.000000
vt 1.000000 0.000000
vt 1.000000 1.000000
vt 1.000000 1.000000
vt 1.000000 1.000000
vt 1.000000 1.000000
vt 1.000000 1.000000
vt 1.000000 1.000000
vt 1.000000 1.000000
vt 1.000000 1.000000
vt 1.000000 1.000000
vt 1.000000 1.000000
vt 1.000000 1.000000
vt 1.000000 1.000000
vt 1.000000 1.000000
vt 1.000000 1.000000
vt 1.000000 1.000000
vt 1.000000 1.000000
vt 1.000000 1.000000
vt 1.000000 1.000000
vt 1.000000 1.000000
vt 1.000000 1.000000
vt 1.000000 1.000000
vt 1.000000 1.000000
vt 1.000000 1.000000
vt 1.000000 1.000000
vt 1.000000 1.000000
vt 1.000000 1.000000
vt 1.000000 1.000000
vt 1.000000 1.000000
vt 1.000000 1.000000
vt 1.000000 1.000000
vt 1.000000 1.000000
vn -0.6725 -0.6857 0.2786
vn 0.6705 -0.7298 -0.1334
vn 0.6316 -0.7299 -0.2616
vn -0.7139 -0.6857 -0.1420
vn 0.6316 -0.7298 0.2616
vn 0.6705 -0.7298 0.1334
vn 0.4834 -0.7299 0.4833
vn -0.4044 -0.6857 -0.6052
vn 0.3798 -0.7298 0.5684
vn -0.1420 -0.6857 -0.7139
vn 1.0000 0.0000 -0.0000
vn 0.1333 -0.7299 0.6705
vn 0.2786 -0.6857 -0.6725
vn -0.3798 -0.7299 0.5684
vn -0.2616 -0.7298 0.6316
vn -0.5684 -0.7298 0.3798
vn 0.6725 -0.6857 -0.2786
vn -0.6316 -0.7298 0.2616
vn 0.7279 -0.6857 0.0000
vn -0.6705 -0.7298 -0.1333
vn -0.6836 -0.7298 0.0000
vn -0.5684 -0.7299 -0.3798
vn 0.5147 -0.6857 0.5147
vn -0.4834 -0.7299 -0.4834
vn 0.2785 -0.6857 0.6725
vn -0.1333 -0.7298 -0.6705
vn -0.2616 -0.7298 -0.6316
vn -0.1420 -0.6857 0.7139
vn 0.2616 -0.7298 -0.6316
vn 0.1334 -0.7299 -0.6704
vn -0.5147 -0.6857 0.5147
vn 0.5684 -0.7298 -0.3798
vn 0.4834 -0.7299 -0.4833
vn -0.7139 -0.6857 0.1420
vn 0.6836 -0.7298 0.0000
vn -0.6052 -0.6857 -0.4044
vn 0.5684 -0.7298 0.3798
vn 0.2616 -0.7299 0.6316
vn 0.9806 0.0004 0.1959
vn -0.9810 -0.0004 -0.1941
vn 0.4044 -0.6857 -0.6052
vn -0.4834 -0.7298 0.4834
vn -0.6705 -0.7298 0.1334
vn 0.7139 -0.6857 0.1420
vn -0.6316 -0.7298 -0.2616
vn 0.4044 -0.6857 0.6052
vn -0.3798 -0.7298 -0.5684
vn 0.1420 -0.6857 0.7139
vn 0.0000 -0.7298 -0.6836
vn -0.4044 -0.6857 0.6052
vn 0.3798 -0.7299 -0.5684
vn -0.6052 -0.6857 0.4044
vn -0.7279 -0.6857 0.0000
vn -0.2786 -0.6857 -0.6725
vn 0.6052 -0.6857 -0.4044
vn 0.6725 -0.6857 0.2785
vn -0.0000 -0.6857 0.7279
vn 0.6705 0.7298 -0.1334
vn -0.6725 0.6857 0.2786
vn 0.6316 0.7299 -0.2616
vn 0.6316 0.7299 0.2616
vn -0.7139 0.6857 -0.1420
vn 0.6705 0.7298 0.1334
vn 0.4834 0.7299 0.4834
vn -0.4044 0.6857 -0.6052
vn -0.5147 0.6857 -0.5147
vn -0.1420 0.6857 -0.7139
vn 0.1334 0.7298 0.6705
vn -0.3798 0.7299 0.5684
vn 0.2785 0.6857 -0.6725
vn -0.2616 0.7299 0.6316
vn -0.5684 0.7299 0.3798
vn 0.6725 0.6857 -0.2786
vn 0.6052 0.6857 -0.4044
vn -0.6836 0.7298 -0.0000
vn 0.7139 0.6857 0.1420
vn 0.7279 0.6857 -0.0000
vn -0.5684 0.7298 -0.3798
vn 0.5147 0.6857 0.5147
vn 0.6052 0.6857 0.4044
vn -0.1334 0.7298 -0.6705
vn 0.2786 0.6857 0.6724
vn -0.2616 0.7298 -0.6316
vn 0.2616 0.7298 -0.6316
vn -0.1420 0.6857 0.7139
vn 0.1333 0.7298 -0.6705
vn 0.5684 0.7298 -0.3798
vn -0.5147 0.6857 0.5147
vn 0.4834 0.7299 -0.4834
vn 0.6836 0.7298 0.0000
vn -0.7139 0.6857 0.1420
vn -0.6052 0.6857 -0.4044
vn -0.6725 0.6857 -0.2786
vn 0.2616 0.7298 0.6316
vn 0.3798 0.7299 0.5684
vn 0.9806 -0.0004 0.1959
vn -0.9810 0.0004 -0.1940
vn 0.5147 0.6857 -0.5147
vn 0.4044 0.6857 -0.6052
vn -0.6316 0.7299 0.2616
vn 0.7139 0.6857 -0.1420
vn -0.6316 0.7299 -0.2616
vn -0.6705 0.7298 -0.1334
vn -0.3798 0.7299 -0.5684
vn -0.4834 0.7299 -0.4833
vn -0.0000 0.7298 -0.6836
vn 0.1420 0.6857 0.7139
vn -0.4044 0.6857 0.6052
vn -0.2785 0.6857 0.6725
vn -0.6052 0.6857 0.4044
vn -0.7279 0.6857 -0.0000
vn 0.5684 0.7298 0.3798
vn -0.2786 0.6857 -0.6725
vn -0.4834 0.7299 0.4833
vn -0.6705 0.7298 0.1334
vn 0.6725 0.6857 0.2786
vn 0.4044 0.6857 0.6052
vn 0.0000 0.6857 0.7279
vn 0.3798 0.7299 -0.5684
vn -1.0000 0.0000 0.0000
vn -0.5147 -0.6857 -0.5147
vn 0.7139 -0.6857 -0.1420
vn 0.5147 -0.6857 -0.5147
vn -0.2786 -0.6857 0.6725
vn -0.6725 -0.6857 -0.2786
vn 0.6052 -0.6857 0.4044
s 1
f 11/1/1 42/2/2 43/3/3
f 8/4/4 39/5/5 40/6/6
f 37/7/7 4/8/8 36/9/9
f 2/10/10 33/11/11 34/12/12
f 31/13/13 62/14/14 63/15/15
f 60/16/16 27/17/17 59/18/18
f 25/19/19 56/20/20 57/21/21
f 54/22/22 21/23/23 53/24/24
f 19/25/25 50/26/26 51/27/27
f 16/28/28 47/29/29 48/30/30
f 13/31/31 44/32/32 45/33/33
f 10/34/34 41/35/35 42/36/2
f 39/37/5 6/38/36 38/39/37
f 4/40/8 35/41/38 36/42/9
f 32/43/39 33/11/11 64/44/40
f 30/45/41 61/46/42 62/47/14
f 27/48/17 58/49/43 59/50/18
f 24/51/44 55/52/45 56/53/20
f 53/54/24 20/55/46 52/56/47
f 18/57/48 49/58/49 50/59/26
f 47/60/29 14/61/50 46/62/51
f 12/63/52 43/64/3 44/65/32
f 9/66/53 40/67/6 41/68/35
f 6/69/36 37/70/7 38/71/37
f 3/72/54 34/73/12 35/74/38
f 32/43/39 63/75/15 64/44/40
f 61/76/42 28/77/55 60/78/16
f 58/79/43 25/80/19 57/81/21
f 23/82/56 54/83/22 55/84/45
f 20/85/46 51/86/27 52/87/47
f 17/88/57 48/89/30 49/90/49
f 14/91/50 45/92/33 46/93/51
f 106/94/58 75/95/59 107/96/60
f 103/97/61 72/98/62 104/99/63
f 101/100/64 68/101/65 69/102/66
f 97/103/11 66/104/67 98/105/68
f 126/106/69 95/107/70 127/108/71
f 124/109/72 91/110/73 92/111/74
f 121/112/75 88/113/76 89/114/77
f 118/115/78 85/116/79 86/117/80
f 114/118/81 83/119/82 115/120/83
f 111/121/84 80/122/85 112/123/86
f 108/124/87 77/125/88 109/126/89
f 105/127/90 74/128/91 106/129/58
f 103/130/61 70/131/92 71/132/93
f 99/133/94 68/134/65 100/135/95
f 97/103/11 96/136/96 128/137/97
f 126/138/69 93/139/98 94/140/99
f 123/141/100 90/142/101 91/143/73
f 119/144/102 88/145/76 120/146/103
f 116/147/104 85/148/79 117/149/105
f 113/150/106 82/151/107 114/152/81
f 111/153/84 78/154/108 79/155/109
f 107/156/60 76/157/110 108/158/87
f 104/159/63 73/160/111 105/161/90
f 102/162/112 69/163/66 70/164/92
f 99/165/94 66/166/67 67/167/113
f 127/168/71 96/136/96 128/137/97
f 125/169/114 92/170/74 93/171/98
f 121/172/75 90/173/101 122/174/115
f 118/175/78 87/176/116 119/177/102
f 115/178/83 84/179/117 116/180/104
f 113/181/106 80/182/85 81/183/118
f 110/184/119 77/185/88 78/186/108
f 65/187/120 2/188/10 66/189/67
f 68/190/65 5/191/121 69/192/66
f 71/193/93 8/194/4 72/195/62
f 74/196/91 11/197/1 75/198/59
f 77/199/88 14/200/50 78/201/108
f 80/202/85 17/203/57 81/204/118
f 83/205/82 20/206/46 84/207/117
f 86/208/80 23/209/56 87/210/116
f 89/211/77 26/212/122 90/213/101
f 92/214/74 29/215/123 93/216/98
f 95/217/70 32/218/39 96/219/96
f 34/220/12 99/221/94 35/74/38
f 37/222/7 102/223/112 38/71/37
f 40/224/6 105/225/90 41/68/35
f 43/226/3 108/227/87 44/65/32
f 46/228/51 111/229/84 47/60/29
f 49/230/49 114/231/81 50/59/26
f 52/232/47 117/233/105 53/54/24
f 55/234/45 120/235/103 56/53/20
f 58/236/43 123/237/100 59/50/18
f 61/238/42 126/239/69 62/47/14
f 33/240/11 128/241/97 64/44/40
f 66/242/67 3/243/54 67/244/113
f 69/245/66 6/246/36 70/247/92
f 72/248/62 9/249/53 73/250/111
f 75/251/59 12/252/52 76/253/110
f 78/254/108 15/255/124 79/256/109
f 81/257/118 18/258/48 82/259/107
f 84/260/117 21/261/23 85/262/79
f 87/263/116 24/264/44 88/265/76
f 90/266/101 27/267/17 91/268/73
f 93/269/98 30/270/41 94/271/99
f 65/187/120 32/218/39 96/219/96
f 35/272/38 100/273/95 36/42/9
f 38/274/37 103/275/61 39/37/5
f 41/276/35 106/277/58 42/36/2
f 44/278/32 109/279/89 45/33/33
f 47/280/29 112/281/86 48/30/30
f 50/282/26 115/283/83 51/27/27
f 53/284/24 118/285/78 54/22/22
f 56/286/20 121/287/75 57/21/21
f 59/288/18 124/289/72 60/16/16
f 62/290/14 127/291/71 63/15/15
f 67/292/113 4/293/8 68/294/65
f 70/295/92 7/296/125 71/297/93
f 73/298/111 10/299/34 74/300/91
f 76/301/110 13/302/31 77/303/88
f 79/304/109 16/305/28 80/306/85
f 82/307/107 19/308/25 83/309/82
f 85/310/79 22/311/126 86/312/80
f 88/313/76 25/314/19 89/315/77
f 91/316/73 28/317/55 92/318/74
f 94/319/99 31/320/13 95/321/70
f 33/240/11 98/322/68 34/12/12
f 36/323/9 101/324/64 37/7/7
f 39/325/5 104/326/63 40/6/6
f 42/327/2 107/328/60 43/3/3
f 45/329/33 110/330/119 46/93/51
f 48/331/30 113/332/106 49/90/49
f 51/333/27 116/334/104 52/87/47
f 54/335/22 119/336/102 55/84/45
f 57/337/21 122/338/115 58/79/43
f 60/339/16 125/340/114 61/76/42
f 63/341/15 128/241/97 64/44/40
f 11/1/1 10/342/34 42/2/2
f 8/4/4 7/343/125 39/5/5
f 37/7/7 5/344/121 4/8/8
f 2/10/10 1/345/120 33/11/11
f 31/13/13 30/346/41 62/14/14
f 60/16/16 28/347/55 27/17/17
f 25/19/19 24/348/44 56/20/20
f 54/22/22 22/349/126 21/23/23
f 19/25/25 18/350/48 50/26/26
f 16/28/28 15/351/124 47/29/29
f 13/31/31 12/352/52 44/32/32
f 10/34/34 9/353/53 41/35/35
f 39/37/5 7/354/125 6/38/36
f 4/40/8 3/355/54 35/41/38
f 32/43/39 1/345/120 33/11/11
f 30/45/41 29/356/123 61/46/42
f 27/48/17 26/357/122 58/49/43
f 24/51/44 23/358/56 55/52/45
f 53/54/24 21/359/23 20/55/46
f 18/57/48 17/360/57 49/58/49
f 47/60/29 15/361/124 14/61/50
f 12/63/52 11/362/1 43/64/3
f 9/66/53 8/363/4 40/67/6
f 6/69/36 5/364/121 37/70/7
f 3/72/54 2/365/10 34/73/12
f 32/43/39 31/366/13 63/75/15
f 61/76/42 29/367/123 28/77/55
f 58/79/43 26/368/122 25/80/19
f 23/82/56 22/369/126 54/83/22
f 20/85/46 19/370/25 51/86/27
f 17/88/57 16/371/28 48/89/30
f 14/91/50 13/372/31 45/92/33
f 106/94/58 74/373/91 75/95/59
f 103/97/61 71/374/93 72/98/62
f 101/100/64 100/375/95 68/101/65
f 97/103/11 65/376/120 66/104/67
f 126/106/69 94/377/99 95/107/70
f 124/109/72 123/378/100 91/110/73
f 121/112/75 120/379/103 88/113/76
f 118/115/78 117/380/105 85/116/79
f 114/118/81 82/381/107 83/119/82
f 111/121/84 79/382/109 80/122/85
f 108/124/87 76/383/110 77/125/88
f 105/127/90 73/384/111 74/128/91
f 103/130/61 102/385/112 70/131/92
f 99/133/94 67/386/113 68/134/65
f 97/103/11 65/376/120 96/136/96
f 126/138/69 125/387/114 93/139/98
f 123/141/100 122/388/115 90/142/101
f 119/144/102 87/389/116 88/145/76
f 116/147/104 84/390/117 85/148/79
f 113/150/106 81/391/118 82/151/107
f 111/153/84 110/392/119 78/154/108
f 107/156/60 75/393/59 76/157/110
f 104/159/63 72/394/62 73/160/111
f 102/162/112 101/395/64 69/163/66
f 99/165/94 98/396/68 66/166/67
f 127/168/71 95/397/70 96/136/96
f 125/169/114 124/398/72 92/170/74
f 121/172/75 89/399/77 90/173/101
f 118/175/78 86/400/80 87/176/116
f 115/178/83 83/401/82 84/179/117
f 113/181/106 112/402/86 80/182/85
f 110/184/119 109/403/89 77/185/88
f 65/187/120 1/345/120 2/188/10
f 68/190/65 4/8/8 5/191/121
f 71/193/93 7/343/125 8/194/4
f 74/196/91 10/342/34 11/197/1
f 77/199/88 13/372/31 14/200/50
f 80/202/85 16/371/28 17/203/57
f 83/205/82 19/370/25 20/206/46
f 86/208/80 22/369/126 23/209/56
f 89/211/77 25/80/19 26/212/122
f 92/214/74 28/77/55 29/215/123
f 95/217/70 31/366/13 32/218/39
f 34/220/12 98/404/68 99/221/94
f 37/222/7 101/405/64 102/223/112
f 40/224/6 104/406/63 105/225/90
f 43/226/3 107/407/60 108/227/87
f 46/228/51 110/408/119 111/229/84
f 49/230/49 113/409/106 114/231/81
f 52/232/47 116/410/104 117/233/105
f 55/234/45 119/411/102 120/235/103
f 58/236/43 122/412/115 123/237/100
f 61/238/42 125/413/114 126/239/69
f 33/240/11 97/414/11 128/241/97
f 66/242/67 2/365/10 3/243/54
f 69/245/66 5/364/121 6/246/36
f 72/248/62 8/363/4 9/249/53
f 75/251/59 11/362/1 12/252/52
f 78/254/108 14/61/50 15/255/124
f 81/257/118 17/360/57 18/258/48
f 84/260/117 20/55/46 21/261/23
f 87/263/116 23/358/56 24/264/44
f 90/266/101 26/357/122 27/267/17
f 93/269/98 29/356/123 30/270/41
f 65/187/120 1/345/120 32/218/39
f 35/272/38 99/415/94 100/273/95
f 38/274/37 102/416/112 103/275/61
f 41/276/35 105/417/90 106/277/58
f 44/278/32 108/418/87 109/279/89
f 47/280/29 111/419/84 112/281/86
f 50/282/26 114/420/81 115/283/83
f 53/284/24 117/421/105 118/285/78
f 56/286/20 120/422/103 121/287/75
f 59/288/18 123/423/100 124/289/72
f 62/290/14 126/424/69 127/291/71
f 67/292/113 3/355/54 4/293/8
f 70/295/92 6/38/36 7/296/125
f 73/298/111 9/353/53 10/299/34
f 76/301/110 12/352/52 13/302/31
f 79/304/109 15/351/124 16/305/28
f 82/307/107 18/350/48 19/308/25
f 85/310/79 21/23/23 22/311/126
f 88/313/76 24/348/44 25/314/19
f 91/316/73 27/17/17 28/317/55
f 94/319/99 30/346/41 31/320/13
f 33/240/11 97/414/11 98/322/68
f 36/323/9 100/425/95 101/324/64
f 39/325/5 103/426/61 104/326/63
f 42/327/2 106/427/58 107/328/60
f 45/329/33 109/428/89 110/330/119
f 48/331/30 112/429/86 113/332/106
f 51/333/27 115/430/83 116/334/104
f 54/335/22 118/431/78 119/336/102
f 57/337/21 121/432/75 122/338/115
f 60/339/16 124/433/72 125/340/114
f 63/341/15 127/434/71 128/241/97
