# Blender v3.2.1 OBJ File: 'LAZIENKA.blend'
# www.blender.org
o Circle.010_Circle.005
v 1.408183 0.467168 2.755992
v 1.406737 0.467168 2.755178
v 1.405161 0.467168 2.754662
v 1.403514 0.467168 2.754463
v 1.401860 0.467168 2.754590
v 1.400263 0.467168 2.755037
v 1.398783 0.467168 2.755786
v 1.397478 0.467168 2.756811
v 1.396398 0.467168 2.758070
v 1.395584 0.467168 2.759515
v 1.395068 0.467168 2.761091
v 1.394870 0.467168 2.762738
v 1.394996 0.467168 2.764392
v 1.395443 0.467168 2.765990
v 1.396193 0.467168 2.767469
v 1.397217 0.467168 2.768774
v 1.398476 0.467168 2.769854
v 1.399922 0.467168 2.770668
v 1.401498 0.467168 2.771184
v 1.403145 0.467168 2.771383
v 1.404799 0.467168 2.771256
v 1.406396 0.467168 2.770809
v 1.407876 0.467168 2.770059
v 1.409181 0.467168 2.769035
v 1.410261 0.467168 2.767776
v 1.411075 0.467168 2.766331
v 1.411591 0.467168 2.764755
v 1.411789 0.467168 2.763108
v 1.411663 0.467168 2.761454
v 1.411216 0.467168 2.759856
v 1.410466 0.467168 2.758377
v 1.409442 0.467168 2.757072
v 1.408183 0.475418 2.755992
v 1.406737 0.475418 2.755178
v 1.405161 0.475418 2.754662
v 1.403514 0.475418 2.754463
v 1.401860 0.475418 2.754590
v 1.400263 0.475418 2.755037
v 1.398783 0.475418 2.755786
v 1.397478 0.475418 2.756811
v 1.396398 0.475418 2.758070
v 1.395584 0.475418 2.759515
v 1.395068 0.475418 2.761091
v 1.394870 0.475418 2.762738
v 1.394996 0.475418 2.764392
v 1.395443 0.475418 2.765990
v 1.396193 0.475418 2.767469
v 1.397217 0.475418 2.768774
v 1.398476 0.475418 2.769854
v 1.399922 0.475418 2.770668
v 1.401498 0.475418 2.771184
v 1.403145 0.475418 2.771383
v 1.404799 0.475418 2.771256
v 1.406396 0.475418 2.770809
v 1.407876 0.475418 2.770059
v 1.409181 0.475418 2.769035
v 1.410261 0.475418 2.767776
v 1.411075 0.475418 2.766331
v 1.411591 0.475418 2.764755
v 1.411789 0.475418 2.763108
v 1.411663 0.475418 2.761454
v 1.411216 0.475418 2.759856
v 1.410466 0.475418 2.758377
v 1.409442 0.475418 2.757072
vt 1.000000 0.000000
vt 0.000000 1.000000
vt 0.000000 0.000000
vt 1.000000 0.000000
vt 0.000000 1.000000
vt 0.000000 0.000000
vt 1.000000 0.000000
vt 0.000000 1.000000
vt 0.000000 0.000000
vt 1.000000 0.000000
vt 0.000000 1.000000
vt 0.000000 0.000000
vt 1.000000 0.000000
vt 0.000000 1.000000
vt 0.000000 0.000000
vt 1.000000 0.000000
vt 0.000000 1.000000
vt 0.000000 0.000000
vt 1.000000 0.000000
vt 0.000000 1.000000
vt 0.000000 0.000000
vt 1.000000 0.000000
vt 0.000000 1.000000
vt 0.000000 0.000000
vt 1.000000 0.000000
vt 0.000000 1.000000
vt 0.000000 0.000000
vt 1.000000 0.000000
vt 0.000000 1.000000
vt 0.000000 0.000000
vt 1.000000 0.000000
vt 0.000000 1.000000
vt 0.000000 0.000000
vt 1.000000 0.000000
vt 0.000000 1.000000
vt 0.000000 0.000000
vt 1.000000 0.000000
vt 0.000000 1.000000
vt 0.000000 0.000000
vt 1.000000 0.000000
vt 0.000000 1.000000
vt 0.000000 0.000000
vt 1.000000 0.000000
vt 0.000000 1.000000
vt 0.000000 0.000000
vt 1.000000 0.000000
vt 0.000000 1.000000
vt 0.000000 0.000000
vt 1.000000 0.000000
vt 0.000000 1.000000
vt 0.000000 0.000000
vt 1.000000 0.000000
vt 0.000000 1.000000
vt 0.000000 0.000000
vt 1.000000 0.000000
vt 0.000000 1.000000
vt 0.000000 0.000000
vt 1.000000 0.000000
vt 0.000000 1.000000
vt 0.000000 0.000000
vt 1.000000 0.000000
vt 0.000000 1.000000
vt 0.000000 0.000000
vt 1.000000 0.000000
vt 0.000000 1.000000
vt 0.000000 0.000000
vt 1.000000 0.000000
vt 0.000000 1.000000
vt 0.000000 0.000000
vt 1.000000 0.000000
vt 0.000000 1.000000
vt 0.000000 0.000000
vt 1.000000 0.000000
vt 0.000000 1.000000
vt 0.000000 0.000000
vt 1.000000 0.000000
vt 0.000000 1.000000
vt 0.000000 0.000000
vt 1.000000 0.000000
vt 0.000000 1.000000
vt 0.000000 0.000000
vt 1.000000 0.000000
vt 0.000000 1.000000
vt 0.000000 0.000000
vt 1.000000 0.000000
vt 0.000000 1.000000
vt 0.000000 0.000000
vt 1.000000 0.000000
vt 0.000000 1.000000
vt 0.000000 0.000000
vt 1.000000 0.000000
vt 0.000000 1.000000
vt 0.000000 0.000000
vt 1.000000 1.000000
vt 1.000000 1.000000
vt 1.000000 1.000000
vt 1.000000 1.000000
vt 1.000000 1.000000
vt 1.000000 1.000000
vt 1.000000 1.000000
vt 1.000000 1.000000
vt 1.000000 1.000000
vt 1.000000 1.000000
vt 1.000000 1.000000
vt 1.000000 1.000000
vt 1.000000 1.000000
vt 1.000000 1.000000
vt 1.000000 1.000000
vt 1.000000 1.000000
vt 1.000000 1.000000
vt 1.000000 1.000000
vt 1.000000 1.000000
vt 1.000000 1.000000
vt 1.000000 1.000000
vt 1.000000 1.000000
vt 1.000000 1.000000
vt 1.000000 1.000000
vt 1.000000 1.000000
vt 1.000000 1.000000
vt 1.000000 1.000000
vt 1.000000 1.000000
vt 1.000000 1.000000
vt 1.000000 1.000000
vt 1.000000 1.000000
vn -0.9928 0.0000 -0.1196
vn -0.7589 0.0000 -0.6512
vn -0.2692 0.0000 -0.9631
vn 0.3111 0.0000 -0.9504
vn 0.7868 0.0000 -0.6173
vn 0.9971 0.0000 -0.0763
vn 0.8714 0.0000 0.4907
vn 0.4523 0.0000 0.8919
vn -0.1198 0.0000 0.9928
vn -0.6511 0.0000 0.7590
vn -0.9630 0.0000 0.2694
vn -0.9504 0.0000 -0.3111
vn -0.6175 0.0000 -0.7865
vn -0.0762 0.0000 -0.9971
vn 0.4903 0.0000 -0.8716
vn 0.8920 0.0000 -0.4520
vn 0.9928 0.0000 0.1196
vn 0.7589 0.0000 0.6512
vn 0.2692 0.0000 0.9631
vn -0.3111 0.0000 0.9504
vn -0.7867 0.0000 0.6174
vn -0.9971 0.0000 0.0763
vn -0.8714 0.0000 -0.4906
vn -0.4519 0.0000 -0.8921
vn 0.1198 0.0000 -0.9928
vn 0.9630 0.0000 -0.2694
vn 0.9504 0.0000 0.3111
vn 0.6173 0.0000 0.7867
vn 0.0765 0.0000 0.9971
vn -0.4903 0.0000 0.8716
vn -0.8920 0.0000 0.4520
vn 0.7866 0.0000 -0.6175
vn 0.8715 0.0000 0.4904
vn 0.4521 0.0000 0.8920
vn -0.1195 0.0000 0.9928
vn -0.6174 0.0000 -0.7867
vn 0.4907 0.0000 -0.8713
vn 0.7591 0.0000 0.6510
vn -0.8715 0.0000 -0.4905
vn -0.4523 0.0000 -0.8919
vn 0.1195 0.0000 -0.9928
vn 0.6172 0.0000 0.7868
vn 0.0759 0.0000 0.9971
vn -0.4907 0.0000 0.8713
s off
f 43/1/1 12/2/1 44/3/1
f 40/4/2 9/5/2 41/6/2
f 37/7/3 6/8/3 38/9/3
f 34/10/4 3/11/4 35/12/4
f 63/13/5 32/14/5 64/15/5
f 60/16/6 29/17/6 61/18/6
f 57/19/7 26/20/7 58/21/7
f 54/22/8 23/23/8 55/24/8
f 51/25/9 20/26/9 52/27/9
f 48/28/10 17/29/10 49/30/10
f 45/31/11 14/32/11 46/33/11
f 42/34/12 11/35/12 43/36/12
f 39/37/13 8/38/13 40/39/13
f 36/40/14 5/41/14 37/42/14
f 33/43/15 2/44/15 34/45/15
f 62/46/16 31/47/16 63/48/16
f 59/49/17 28/50/17 60/51/17
f 56/52/18 25/53/18 57/54/18
f 53/55/19 22/56/19 54/57/19
f 50/58/20 19/59/20 51/60/20
f 47/61/21 16/62/21 48/63/21
f 44/64/22 13/65/22 45/66/22
f 41/67/23 10/68/23 42/69/23
f 38/70/24 7/71/24 39/72/24
f 35/73/25 4/74/25 36/75/25
f 33/43/10 32/14/10 64/15/10
f 61/76/26 30/77/26 62/78/26
f 58/79/27 27/80/27 59/81/27
f 55/82/28 24/83/28 56/84/28
f 52/85/29 21/86/29 53/87/29
f 49/88/30 18/89/30 50/90/30
f 46/91/31 15/92/31 47/93/31
f 43/1/1 11/94/1 12/2/1
f 40/4/2 8/95/2 9/5/2
f 37/7/3 5/96/3 6/8/3
f 34/10/4 2/97/4 3/11/4
f 63/13/32 31/98/32 32/14/32
f 60/16/6 28/99/6 29/17/6
f 57/19/33 25/100/33 26/20/33
f 54/22/34 22/101/34 23/23/34
f 51/25/35 19/102/35 20/26/35
f 48/28/10 16/103/10 17/29/10
f 45/31/11 13/104/11 14/32/11
f 42/34/12 10/105/12 11/35/12
f 39/37/36 7/106/36 8/38/36
f 36/40/14 4/107/14 5/41/14
f 33/43/37 1/108/37 2/44/37
f 62/46/16 30/109/16 31/47/16
f 59/49/17 27/110/17 28/50/17
f 56/52/38 24/111/38 25/53/38
f 53/55/19 21/112/19 22/56/19
f 50/58/20 18/113/20 19/59/20
f 47/61/21 15/114/21 16/62/21
f 44/64/22 12/115/22 13/65/22
f 41/67/39 9/116/39 10/68/39
f 38/70/40 6/117/40 7/71/40
f 35/73/41 3/118/41 4/74/41
f 33/43/10 1/108/10 32/14/10
f 61/76/26 29/119/26 30/77/26
f 58/79/27 26/120/27 27/80/27
f 55/82/42 23/121/42 24/83/42
f 52/85/43 20/122/43 21/86/43
f 49/88/44 17/123/44 18/89/44
f 46/91/31 14/124/31 15/92/31
