# Blender v3.2.1 OBJ File: 'LAZIENKA.blend'
# www.blender.org
o Cube
v -2.006557 0.024604 4.999743
v -2.006557 0.024604 2.244101
v 1.781960 0.024604 2.244101
v 1.781960 0.024604 4.999743
v 1.615188 0.837710 2.244101
v 1.615188 0.837710 4.999743
v -2.006557 0.024604 2.505053
v 1.781960 0.024604 2.505053
v 1.615188 0.837710 2.505053
v 1.781960 0.024604 4.800914
v -2.006557 0.024604 3.197409
v -2.006557 0.024604 3.307785
v 1.781960 0.024604 3.197409
v 1.615188 0.837710 3.197409
v 1.781960 0.024604 4.106057
v -2.006557 0.024604 3.995124
v 1.781960 0.024604 3.307785
v 1.781960 0.024604 3.995124
v -2.006557 0.024604 4.106057
v -2.006557 0.024604 4.800914
v 0.146694 0.024604 2.244101
v 0.146694 0.024604 4.999743
v 0.146694 0.024604 2.505053
v 0.146694 0.024604 4.800914
v 0.146694 0.024604 3.307785
v 0.146694 0.024604 3.197409
v 0.146694 0.024604 3.995124
v 0.146694 0.024604 4.106057
v -2.006557 0.024604 2.510307
v 0.146694 0.024604 2.510307
v -2.006557 0.024604 2.980844
v 0.146694 0.024604 2.980844
v -2.006557 0.024604 2.986098
v 0.146694 0.024604 2.986098
v 0.146694 0.024604 2.244101
v -2.006557 0.024604 2.244101
v 0.146694 0.024604 3.995124
v 1.781960 0.024604 3.995124
v 0.146694 0.024604 2.505053
v -2.006557 0.024604 2.505053
v -2.006557 0.024604 2.505053
v -2.006557 0.024604 3.995124
vt 1.000000 0.000000
vt 0.000000 1.000000
vt 0.000000 0.000000
vt 1.000000 0.000000
vt 0.000000 1.000000
vt 0.000000 0.000000
vt 1.000000 0.000000
vt 0.000000 1.000000
vt 0.000000 0.000000
vt 1.000000 0.000000
vt 0.000000 1.000000
vt 0.000000 0.000000
vt 1.000000 0.000000
vt 0.000000 1.000000
vt 0.000000 0.000000
vt 1.000000 0.000000
vt 0.000000 1.000000
vt 0.000000 0.000000
vt 1.000000 0.000000
vt 0.000000 1.000000
vt 0.000000 0.000000
vt 1.000000 0.000000
vt 0.000000 1.000000
vt 0.000000 0.000000
vt 1.000000 0.000000
vt 0.000000 1.000000
vt 0.000000 0.000000
vt 1.000000 0.000000
vt 0.000000 1.000000
vt 0.000000 0.000000
vt 1.000000 0.000000
vt 0.000000 1.000000
vt 0.000000 0.000000
vt 1.000000 0.000000
vt 0.000000 1.000000
vt 0.000000 0.000000
vt 1.000000 0.000000
vt 0.000000 1.000000
vt 0.000000 0.000000
vt 1.000000 0.000000
vt 0.000000 1.000000
vt 0.000000 0.000000
vt 1.000000 0.000000
vt 0.000000 1.000000
vt 0.000000 0.000000
vt 1.000000 0.000000
vt 0.000000 1.000000
vt 0.000000 0.000000
vt 1.000000 0.000000
vt 0.000000 1.000000
vt 0.000000 0.000000
vt 1.000000 1.000000
vt 1.000000 1.000000
vt 1.000000 1.000000
vt 1.000000 1.000000
vt 1.000000 1.000000
vt 1.000000 1.000000
vt 1.000000 1.000000
vt 1.000000 1.000000
vt 1.000000 1.000000
vt 1.000000 1.000000
vt 1.000000 1.000000
vt 1.000000 1.000000
vt 1.000000 1.000000
vt 1.000000 1.000000
vt 1.000000 1.000000
vt 1.000000 1.000000
vt 1.000000 1.000000
vn 0.0000 1.0000 0.0000
vn 0.0000 -1.0000 0.0000
s 1
f 8/1/1 35/2/1 39/3/1
f 13/4/1 39/5/1 26/6/1
f 18/7/1 25/8/1 37/9/1
f 17/10/1 26/11/1 25/12/1
f 24/13/2 4/14/2 22/15/2
f 27/16/2 15/17/2 28/18/2
f 28/19/2 10/20/2 24/21/2
f 39/22/1 36/23/1 40/24/1
f 26/25/1 41/26/1 11/27/1
f 37/28/1 12/29/1 16/30/1
f 25/31/1 11/32/1 12/33/1
f 20/34/2 22/35/2 1/36/2
f 42/37/2 28/38/2 19/39/2
f 19/40/2 24/41/2 20/42/2
f 23/43/1 31/44/1 32/45/1
f 29/46/2 21/47/2 30/48/2
f 33/49/2 30/50/2 34/51/2
f 8/1/1 3/52/1 35/2/1
f 13/4/1 8/53/1 39/5/1
f 18/7/1 17/54/1 25/8/1
f 17/10/1 13/55/1 26/11/1
f 24/13/2 10/56/2 4/14/2
f 27/16/2 38/57/2 15/17/2
f 28/19/2 15/58/2 10/20/2
f 39/22/1 35/59/1 36/23/1
f 26/25/1 39/60/1 41/26/1
f 37/28/1 25/61/1 12/29/1
f 25/31/1 26/62/1 11/32/1
f 20/34/2 24/63/2 22/35/2
f 42/37/2 27/64/2 28/38/2
f 19/40/2 28/65/2 24/41/2
f 23/43/1 7/66/1 31/44/1
f 29/46/2 2/67/2 21/47/2
f 33/49/2 29/68/2 30/50/2
l 5 14
l 6 9
