# Blender v3.2.1 OBJ File: 'LAZIENKA.blend'
# www.blender.org
o Cube.001
v -2.006557 0.024604 4.999743
v -2.006557 0.024604 2.244101
v 1.781960 0.024604 2.244101
v 1.781960 0.024604 4.999743
v -2.006557 2.024604 4.999743
v -2.006557 2.024604 2.244101
v 1.117448 2.024604 2.244101
v 1.117448 2.024604 4.999743
v -2.006557 0.837710 2.244101
v 1.781960 0.837710 2.244101
v 1.615188 0.024604 2.244101
v 1.615188 0.024604 4.999743
v 0.950676 2.024604 2.244101
v 0.950676 2.024604 4.999743
v 1.615188 0.837710 2.244101
v 1.615188 0.837710 4.999743
v -2.006557 2.024604 2.505053
v 1.117448 2.024604 2.505053
v 1.781960 0.024604 2.505053
v 0.950676 2.024604 2.505053
v 1.615188 0.024604 2.505053
v 1.615188 0.837710 2.505053
v -2.006557 2.024604 3.995124
v 1.781960 0.024604 4.800914
v 1.615188 0.024604 4.800914
v 1.615188 0.837710 4.800914
v -2.006557 2.024604 4.106057
v 1.117448 2.024604 3.197409
v 0.950676 2.024604 3.197409
v -2.006557 2.024604 3.197409
v 0.950676 2.024604 3.307785
v 1.117448 2.024604 3.307785
v -2.006557 2.024604 4.800914
v 1.781960 0.024604 3.197409
v 1.615188 0.024604 3.197409
v 1.615188 0.837710 3.197409
v 1.615188 0.837710 4.106057
v 1.615188 0.024604 4.106057
v 1.781960 0.024604 4.106057
v 1.117448 2.024604 3.995124
v 0.950676 2.024604 3.995124
v 1.615188 0.837710 3.307785
v 1.615188 0.024604 3.307785
v 1.781960 0.024604 3.307785
v -2.006557 2.024604 3.307785
v 1.615188 0.837710 3.995124
v 1.615188 0.024604 3.995124
v 1.781960 0.024604 3.995124
v 1.117448 2.024604 4.106057
v 0.950676 2.024604 4.106057
v 0.950676 2.024604 4.800914
v 1.117448 2.024604 4.800914
v 1.785425 0.024604 2.244101
v 1.785425 0.024604 4.999743
v 1.120912 2.024604 2.244101
v 1.120912 2.024604 4.999743
v 1.785425 0.837710 2.244101
v 1.785425 0.837710 4.999743
v 1.120912 2.024604 2.505053
v 1.785425 0.024604 2.505053
v 1.785425 0.837710 2.505053
v 1.785425 0.024604 4.800914
v 1.785425 0.837710 4.800914
v 1.120912 2.024604 3.197409
v 1.120912 2.024604 3.307785
v 1.785425 0.024604 3.197409
v 1.785425 0.837710 3.197409
v 1.785425 0.837710 4.106057
v 1.785425 0.024604 4.106057
v 1.120912 2.024604 3.995124
v 1.785425 0.837710 3.307785
v 1.785425 0.024604 3.307785
v 1.785425 0.837710 3.995124
v 1.785425 0.024604 3.995124
v 1.120912 2.024604 4.106057
v 1.120912 2.024604 4.800914
v 0.146694 2.024604 2.244101
v 0.146694 0.024604 2.244101
v 0.146694 2.024604 4.999743
v 0.146694 0.837710 2.244101
v 0.146694 2.024604 2.505053
v 0.146694 2.024604 3.307785
v 0.146694 2.024604 3.197409
v 0.146694 2.024604 3.995124
v 0.146694 2.024604 4.800914
v 0.146694 2.024604 4.106057
v -2.006557 0.024604 2.510307
v -2.006557 2.024604 2.510307
v -2.006557 0.837710 2.510307
v 0.146694 2.024604 2.510307
v 0.146694 0.024604 2.510307
v 0.146694 0.837710 2.510307
v -2.006557 2.024604 2.980844
v 0.146694 2.024604 2.980844
v -2.006557 0.024604 2.986098
v -2.006557 2.024604 2.986098
v -2.006557 0.837710 2.986098
v 0.146694 2.024604 2.986098
v 0.146694 0.024604 2.986098
v 0.146694 0.837710 2.986098
v 0.146694 2.024604 2.244101
v 0.146694 2.024604 2.244101
v 0.146694 2.024604 2.244101
v 1.117448 2.024604 2.244101
v 1.117448 2.024604 4.800914
v 1.117448 2.024604 4.999743
v 0.146694 2.024604 2.510307
v 1.615188 0.837710 2.244101
v 1.615188 0.837710 2.244101
v 1.615188 0.024604 2.244101
v 1.615188 0.024604 2.244101
v 1.615188 0.024604 2.244101
v 0.950676 2.024604 4.800914
v 0.950676 2.024604 4.800914
v 0.950676 2.024604 4.800914
v 0.950676 2.024604 4.800914
v 0.950676 2.024604 4.999743
v 0.950676 2.024604 4.999743
v 0.950676 2.024604 4.999743
v 1.615188 0.837710 4.999743
v 1.615188 0.024604 4.999743
v 1.615188 0.024604 4.999743
v 1.615188 0.024604 4.999743
v 1.615188 0.024604 2.505053
v 1.615188 0.024604 2.505053
v 0.950676 2.024604 2.244101
v 0.950676 2.024604 2.244101
v 0.950676 2.024604 2.244101
v 1.120912 2.024604 3.995124
v 1.120912 2.024604 3.995124
v 1.120912 2.024604 3.995124
v 0.950676 2.024604 3.995124
v 0.950676 2.024604 3.995124
v 0.950676 2.024604 3.995124
v 0.950676 2.024604 2.505053
v 0.950676 2.024604 2.505053
v 0.950676 2.024604 2.505053
v 0.950676 2.024604 2.505053
v 1.615188 0.024604 4.800914
v 1.615188 0.024604 4.800914
v 0.146694 2.024604 2.505053
v -2.006557 2.024604 2.505053
v -2.006557 2.024604 2.505053
v 1.615188 0.024604 4.106057
v 1.615188 0.024604 4.106057
v 1.615188 0.024604 4.106057
v 1.785425 0.024604 4.106057
v 1.785425 0.024604 4.106057
v 1.615188 0.837710 2.505053
v 1.615188 0.837710 2.505053
v 1.615188 0.837710 2.505053
v 1.117448 2.024604 2.505053
v 0.950676 2.024604 3.307785
v 0.950676 2.024604 3.307785
v 0.950676 2.024604 3.307785
v 1.615188 0.837710 3.307785
v 1.615188 0.837710 3.307785
v 1.615188 0.837710 3.307785
v 0.950676 2.024604 3.197409
v 0.950676 2.024604 3.197409
v 0.950676 2.024604 3.197409
v 1.781960 0.024604 3.995124
v 1.615188 0.024604 3.995124
v 1.615188 0.024604 3.995124
v 1.615188 0.024604 3.995124
v 1.117448 2.024604 3.307785
v 1.117448 2.024604 3.197409
v 1.120912 2.024604 2.244101
v 1.120912 2.024604 2.244101
v 1.120912 2.024604 2.505053
v 1.120912 2.024604 2.505053
v 1.120912 2.024604 2.505053
v 1.615188 0.024604 3.307785
v 1.615188 0.024604 3.307785
v 1.615188 0.024604 3.197409
v 1.615188 0.024604 3.197409
v 1.785425 0.837710 2.505053
v 1.785425 0.837710 2.505053
v 1.120912 2.024604 4.800914
v 1.120912 2.024604 4.800914
v 1.120912 2.024604 4.800914
v 1.615188 0.837710 3.197409
v 1.615188 0.837710 3.197409
v 1.615188 0.837710 3.197409
v 1.120912 2.024604 4.106057
v 1.120912 2.024604 4.106057
v 1.120912 2.024604 4.106057
v 0.950676 2.024604 4.106057
v 0.950676 2.024604 4.106057
v 0.950676 2.024604 4.106057
v 0.950676 2.024604 4.106057
v 1.615188 0.837710 4.800914
v 1.615188 0.837710 4.800914
v 1.615188 0.837710 4.106057
v 1.615188 0.837710 4.106057
v 1.615188 0.837710 4.106057
v 1.615188 0.837710 3.995124
v 1.615188 0.837710 3.995124
v 1.615188 0.837710 3.995124
v 1.117448 2.024604 3.995124
v 1.117448 2.024604 4.106057
v 1.120912 2.024604 3.197409
v 1.120912 2.024604 3.197409
v 1.120912 2.024604 3.197409
v 1.785425 0.837710 3.197409
v 1.785425 0.837710 3.197409
v 1.785425 0.837710 2.244101
v 1.785425 0.024604 2.244101
v 1.785425 0.024604 2.244101
v 1.120912 2.024604 4.999743
v 1.120912 2.024604 4.999743
v 1.785425 0.837710 4.999743
v 1.785425 0.024604 4.999743
v 1.785425 0.024604 4.999743
v 1.785425 0.024604 2.505053
v 1.785425 0.024604 4.800914
v 1.785425 0.024604 4.800914
v 1.120912 2.024604 3.307785
v 1.120912 2.024604 3.307785
v 1.120912 2.024604 3.307785
v 1.785425 0.837710 3.307785
v 1.785425 0.837710 3.307785
v 1.785425 0.024604 3.307785
v 1.785425 0.024604 3.197409
v 1.785425 0.837710 4.800914
v 1.785425 0.837710 4.800914
v 1.785425 0.837710 4.800914
v 1.785425 0.837710 4.106057
v 1.785425 0.837710 4.106057
v 1.785425 0.837710 3.995124
v 1.785425 0.837710 3.995124
v 1.785425 0.024604 3.995124
v -2.006557 2.024604 2.244101
v -2.006557 2.024604 2.244101
v 0.146694 0.024604 2.244101
v 0.146694 0.837710 2.244101
v 0.146694 2.024604 2.986098
v 0.146694 2.024604 2.986098
v -2.006557 2.024604 2.510307
v -2.006557 0.837710 2.986098
v -2.006557 0.837710 2.986098
v -2.006557 0.024604 2.986098
v -2.006557 0.024604 2.986098
v -2.006557 2.024604 2.986098
v -2.006557 2.024604 2.986098
v -2.006557 2.024604 2.986098
v 0.146694 0.024604 2.986098
v 0.146694 0.837710 2.986098
vt 0.000000 0.000000
vt 0.000000 0.000000
vt 0.000000 0.000000
vt 0.000000 0.000000
vt 0.000000 0.000000
vt 1.083617 -1.717711
vt 4.515358 0.651265
vt 1.083617 0.651265
vt 0.000000 0.000000
vt 0.000000 0.000000
vt 0.000000 0.000000
vt 1.100395 -0.715748
vt 3.035969 1.852853
vt 1.100395 1.852853
vt 0.000000 0.000000
vt 0.000000 0.000000
vt 0.000000 0.000000
vt 0.000000 0.000000
vt 0.000000 0.000000
vt 0.000000 0.000000
vt 3.788276 -0.731343
vt 4.544816 -0.731343
vt 3.788276 -0.731343
vt 0.000000 0.000000
vt 0.000000 0.000000
vt -0.531661 -0.731343
vt 1.461038 -0.731343
vt -0.531661 -0.731343
vt 0.000000 0.000000
vt 0.000000 0.000000
vt 0.000000 0.000000
vt 1.781033 -0.731343
vt 1.781033 -0.731343
vt 1.461038 -0.731343
vt 1.461038 -0.731343
vt 1.461038 -0.731343
vt 1.781033 -0.731343
vt 0.000000 0.000000
vt 0.000000 0.000000
vt 0.000000 0.000000
vt -0.531661 -0.731343
vt -0.531661 -0.731343
vt 0.000000 0.000000
vt 0.000000 0.000000
vt -0.853273 -0.731343
vt -2.867767 -0.731343
vt -2.867767 -0.731343
vt 0.000000 0.000000
vt 0.000000 0.000000
vt 0.000000 0.000000
vt 0.000000 0.000000
vt 0.000000 0.000000
vt 0.000000 0.000000
vt 0.000000 0.000000
vt 0.000000 0.000000
vt 0.000000 0.000000
vt 0.000000 0.000000
vt 0.000000 0.000000
vt 0.000000 0.000000
vt 0.000000 0.000000
vt 0.000000 0.000000
vt 0.000000 0.000000
vt -0.531661 -0.731343
vt -0.853273 -0.731343
vt -0.853273 -0.731343
vt 0.000000 0.000000
vt 0.000000 0.000000
vt 0.000000 0.000000
vt 0.000000 0.000000
vt -2.867767 -0.731343
vt -2.867767 -0.731343
vt 0.000000 0.000000
vt 0.000000 0.000000
vt 0.000000 0.000000
vt 0.000000 0.000000
vt 0.000000 0.000000
vt 0.000000 0.000000
vt 0.000000 0.000000
vt -3.444204 -0.731343
vt -3.444204 -0.731343
vt 0.000000 0.000000
vt 0.000000 0.000000
vt 0.000000 0.000000
vt -3.444204 1.625972
vt -2.867767 -0.731343
vt -2.867767 1.625972
vt 0.000000 0.000000
vt 0.000000 0.000000
vt 0.000000 0.000000
vt 4.544816 -0.731343
vt 3.788276 1.625972
vt 4.544816 1.625972
vt 0.000000 0.000000
vt 0.000000 0.000000
vt 0.000000 0.000000
vt 1.461038 -0.731343
vt -0.531661 1.625972
vt 1.461038 1.625972
vt 0.000000 0.000000
vt 0.000000 0.000000
vt 0.000000 0.000000
vt 3.788276 -0.731343
vt 1.781033 1.625972
vt 1.781033 -0.731343
vt 0.000000 0.000000
vt 0.000000 0.000000
vt 0.000000 0.000000
vt -0.531661 -0.731343
vt -0.853273 1.625972
vt -0.853273 -0.731343
vt -2.867767 1.625972
vt 1.781033 -0.731343
vt 3.788276 -0.731343
vt -0.531661 1.625972
vt 1.461038 1.625972
vt -0.531661 1.625972
vt 0.000000 0.000000
vt 0.000000 0.000000
vt 0.000000 0.000000
vt 0.000000 0.000000
vt 0.000000 0.000000
vt 0.000000 0.000000
vt 0.000000 0.000000
vt 0.000000 0.000000
vt 0.000000 0.000000
vt 0.000000 0.000000
vt 0.000000 0.000000
vt 0.000000 0.000000
vt 0.000000 0.000000
vt 0.000000 0.000000
vt -0.853273 1.625972
vt -2.867767 1.625972
vt -2.867767 1.625972
vt 0.000000 0.000000
vt 0.000000 0.000000
vt 0.000000 0.000000
vt -3.444204 -0.731343
vt 1.781033 1.625972
vt 3.788276 1.625972
vt 1.781033 1.625972
vt 3.788276 -0.731343
vt 4.544816 -0.731343
vt 4.544816 1.625972
vt 4.544816 -0.731343
vt 4.544816 1.625972
vt -0.853273 -0.731343
vt -0.853273 -0.731343
vt 0.000000 0.000000
vt 0.000000 0.000000
vt 0.000000 0.000000
vt 0.000000 0.000000
vt 0.000000 0.000000
vt 3.788276 1.625972
vt 3.788276 -0.731343
vt 1.781033 -0.731343
vt 0.000000 0.000000
vt 0.000000 0.000000
vt 0.000000 0.000000
vt 0.000000 0.000000
vt 0.000000 0.000000
vt 0.000000 0.000000
vt 0.000000 0.000000
vt 0.000000 0.000000
vt 0.000000 0.000000
vt 0.000000 0.000000
vt 0.000000 0.000000
vt 0.000000 0.000000
vt 0.000000 0.000000
vt 0.000000 0.000000
vt 0.000000 0.000000
vt 1.100395 1.852853
vt 1.100395 -0.715748
vt 1.100395 -0.715748
vt 0.000000 0.000000
vt 0.000000 0.000000
vt 0.000000 0.000000
vt 0.000000 0.000000
vt 0.000000 0.000000
vt 0.000000 0.000000
vt 1.100395 1.852853
vt 1.100395 -0.715748
vt 4.511428 2.489801
vt 1.642361 0.184514
vt 4.511428 0.184514
vt 0.000000 0.000000
vt 0.000000 0.000000
vt 0.000000 0.000000
vt -3.559535 1.852853
vt -3.559535 -0.715748
vt -3.559535 -0.715748
vt -3.656527 -1.717711
vt 1.083617 0.651265
vt -3.656527 0.651265
vt -3.559535 -0.715748
vt 1.100395 1.852853
vt -3.559535 1.852853
vt 0.000000 0.000000
vt 0.000000 0.000000
vt 0.000000 0.000000
vt 1.642361 2.489801
vt -3.485522 0.184514
vt 0.000000 0.000000
vt 0.000000 0.000000
vt -3.559535 1.852853
vt -3.559535 -0.715748
vt 0.000000 0.000000
vt 0.000000 0.000000
vt 0.000000 0.000000
vt 0.000000 0.000000
vt 0.000000 0.000000
vt 4.515358 -1.717711
vt 0.000000 0.000000
vt 4.474064 -0.715748
vt 0.000000 0.000000
vt 0.000000 0.000000
vt 4.544816 -0.731343
vt 0.000000 0.000000
vt 0.000000 0.000000
vt 0.000000 0.000000
vt -0.853273 -0.731343
vt 0.000000 0.000000
vt 0.000000 0.000000
vt -0.531661 -0.731343
vt 0.000000 0.000000
vt 0.000000 0.000000
vt -3.444204 -0.731343
vt 0.000000 0.000000
vt 0.000000 0.000000
vt 0.000000 0.000000
vt 0.000000 0.000000
vt -2.867767 -0.731343
vt 1.461038 1.625972
vt 0.000000 0.000000
vt 0.000000 0.000000
vt 0.000000 0.000000
vt 0.000000 0.000000
vt -0.853273 1.625972
vt 0.000000 0.000000
vt -3.444204 -0.731343
vt 3.788276 1.625972
vt 4.544816 -0.731343
vt 4.544816 -0.731343
vt 0.000000 0.000000
vt -3.444204 1.625972
vt -2.867767 1.625972
vt -3.444204 -0.731343
vt -0.853273 1.625972
vt -2.867767 -0.731343
vt -0.531661 1.625972
vt 1.461038 1.625972
vt -0.531661 -0.731343
vt 1.781033 1.625972
vt 1.461038 -0.731343
vt -0.853273 -0.731343
vt 4.544816 1.625972
vt 4.544816 -0.731343
vt 0.000000 0.000000
vt 0.000000 0.000000
vt 0.000000 0.000000
vt 0.000000 0.000000
vt 1.100395 1.852853
vt -3.559535 1.852853
vt 1.083617 -1.717711
vt 1.100395 -0.715748
vt 0.000000 0.000000
vt -3.485522 2.489801
vt 0.000000 0.000000
vt 0.000000 0.000000
vt 0.000000 0.000000
vt 0.000000 0.000000
vt 0.000000 0.000000
vn -1.0000 0.0000 0.0000
vn 0.0000 0.0000 1.0000
vn 0.0000 -1.0000 0.0000
vn 0.0000 0.0000 -1.0000
vn 0.0000 1.0000 0.0000
vn 0.0000 -0.7071 0.7071
vn -0.7071 -0.7071 0.0000
vn 0.9676 0.2524 0.0000
vn 1.0000 0.0000 0.0000
vn 0.8726 0.4885 0.0000
vn -0.9858 -0.1677 0.0000
vn -0.9676 -0.2524 0.0000
vn -0.8726 -0.4885 0.0000
s off
f 97/1/1 1/2/1 5/3/1
f 5/3/1 246/4/1 97/1/1
f 97/1/1 95/5/1 1/2/1
s 1
f 235/6/2 10/7/2 236/8/2
f 142/9/3 103/10/3 141/11/3
f 236/12/2 104/13/2 101/14/2
f 218/15/4 156/16/4 154/17/4
f 115/18/5 106/19/5 105/20/5
f 125/21/3 3/22/6 19/23/3
f 30/24/3 141/11/3 83/25/3
f 74/26/5 173/27/5 164/28/5
f 152/29/3 126/30/3 7/31/3
f 176/32/3 19/23/3 34/33/3
f 174/34/3 34/33/3 44/35/3
f 223/36/5 175/37/5 173/27/5
f 50/38/3 70/39/3 186/40/3
f 163/41/3 44/35/3 162/42/3
f 45/43/3 83/25/3 82/44/3
f 144/45/3 216/46/3 139/47/3
f 160/48/5 166/49/5 167/50/5
f 138/51/5 167/50/5 18/52/5
f 27/53/3 84/54/3 86/55/3
f 135/56/3 168/57/3 171/58/3
f 23/59/3 82/44/3 84/54/3
f 170/60/4 149/61/4 136/62/4
f 48/63/5 145/64/5 39/65/5
f 153/66/5 200/67/5 166/49/5
f 33/68/3 86/55/3 85/69/3
f 39/65/5 140/70/5 24/71/5
f 116/72/3 185/73/3 181/74/3
f 189/75/5 105/20/5 201/76/5
f 133/77/5 201/76/5 200/67/5
f 5/3/7 85/69/3 79/78/3
f 24/71/5 122/79/5 4/80/5
f 204/81/2 183/82/2 205/83/2
f 212/84/8 217/85/9 225/86/8
f 210/87/10 225/88/8 180/89/10
f 208/90/1 178/91/11 207/92/12
f 207/93/12 59/94/13 169/95/13
f 72/96/1 230/97/11 222/98/11
f 206/99/11 220/100/13 203/101/13
f 215/102/1 206/103/11 178/91/11
f 66/104/1 222/98/11 206/103/11
f 230/105/11 187/106/13 131/107/13
f 232/108/1 228/109/11 230/97/11
f 148/110/1 226/111/1 228/109/11
f 224/112/5 124/113/5 175/37/5
f 198/114/3 71/115/3 231/116/3
f 108/117/2 55/118/2 127/119/2
f 172/120/5 160/48/5 202/121/5
f 179/122/3 117/123/3 113/124/3
f 129/125/2 197/126/2 73/127/2
f 155/128/3 64/129/3 65/130/3
f 229/131/5 192/132/5 227/133/5
f 75/134/4 195/135/4 190/136/4
f 214/137/3 139/47/3 216/46/3
f 182/138/3 61/139/3 67/140/3
f 60/141/5 111/142/5 124/113/5
f 108/143/2 53/144/2 57/145/2
f 69/146/5 164/28/5 146/147/5
f 219/148/5 133/77/5 130/149/5
f 76/150/4 193/151/4 114/152/4
f 151/153/1 21/154/1 35/155/1
f 118/156/13 26/157/11 120/158/12
f 191/159/10 46/160/10 41/161/10
f 42/162/10 29/163/10 31/164/10
f 15/165/10 20/166/10 22/167/10
f 6/168/5 107/169/5 102/170/5
f 141/11/3 7/31/3 152/29/3
f 77/171/9 92/172/9 80/173/9
f 83/25/3 152/29/3 28/174/3
f 82/44/3 28/174/3 32/175/3
f 86/55/3 40/176/3 49/177/3
f 84/54/3 32/175/3 40/176/3
f 85/69/3 49/177/3 52/178/3
f 79/78/3 52/178/3 8/179/3
f 90/180/9 100/181/9 92/172/9
f 80/182/9 91/183/9 78/184/9
f 2/185/1 89/186/1 9/187/1
f 239/188/1 9/189/1 89/190/1
f 243/191/2 248/192/2 241/193/2
f 241/194/2 238/195/2 245/196/2
f 17/197/5 94/198/5 81/199/5
f 92/200/9 99/201/9 91/183/9
f 87/202/1 240/203/1 89/186/1
f 244/204/1 89/190/1 240/205/1
f 88/206/5 98/207/5 107/169/5
f 58/208/2 16/209/2 54/210/2
f 235/6/2 3/211/6 10/7/2
f 142/9/3 233/212/3 103/10/3
f 236/12/2 10/213/2 104/13/2
f 218/15/4 221/214/4 156/16/4
f 115/18/5 119/215/5 106/19/5
f 125/21/3 112/216/3 3/22/6
f 30/24/3 143/217/3 141/11/3
f 74/26/5 223/36/5 173/27/5
f 152/29/3 137/218/3 126/30/3
f 176/32/3 125/21/3 19/23/3
f 174/34/3 176/32/3 34/33/3
f 223/36/5 224/112/5 175/37/5
f 50/38/3 134/219/3 70/39/3
f 163/41/3 174/34/3 44/35/3
f 45/43/3 30/24/3 83/25/3
f 144/45/3 147/220/3 216/46/3
f 160/48/5 153/66/5 166/49/5
f 138/51/5 160/48/5 167/50/5
f 27/53/3 23/59/3 84/54/3
f 135/56/3 128/221/3 168/57/3
f 23/59/3 45/43/3 82/44/3
f 170/60/4 177/222/4 149/61/4
f 48/63/5 47/223/5 145/64/5
f 153/66/5 133/77/5 200/67/5
f 33/68/3 27/53/3 86/55/3
f 39/65/5 145/64/5 140/70/5
f 116/72/3 188/224/3 185/73/3
f 189/75/5 115/18/5 105/20/5
f 133/77/5 189/75/5 201/76/5
f 5/3/7 33/68/3 85/69/3
f 24/71/5 140/70/5 122/79/5
f 204/81/2 161/225/2 183/82/2
f 212/84/8 213/226/9 217/85/9
f 210/87/10 212/227/8 225/88/8
f 208/90/1 215/102/1 178/91/11
f 207/93/12 178/228/11 59/94/13
f 72/96/1 232/108/1 230/97/11
f 206/99/11 222/229/11 220/100/13
f 215/102/1 66/104/1 206/103/11
f 66/104/1 72/96/1 222/98/11
f 230/105/11 228/230/11 187/106/13
f 232/108/1 148/110/1 228/109/11
f 148/110/1 62/231/1 226/111/1
f 224/112/5 60/141/5 124/113/5
f 198/114/3 157/232/3 71/115/3
f 108/117/2 57/233/2 55/118/2
f 172/120/5 138/51/5 160/48/5
f 179/122/3 211/234/3 117/123/3
f 129/125/2 132/235/2 197/126/2
f 155/128/3 159/236/3 64/129/3
f 229/131/5 194/237/5 192/132/5
f 75/134/4 68/238/4 195/135/4
f 214/137/3 123/239/3 139/47/3
f 182/138/3 150/240/3 61/139/3
f 60/141/5 209/241/5 111/142/5
f 108/143/2 110/242/2 53/144/2
f 69/146/5 74/26/5 164/28/5
f 219/148/5 153/66/5 133/77/5
f 76/150/4 63/243/4 193/151/4
f 120/244/12 26/245/11 121/246/1
f 26/245/11 196/247/1 25/248/1
f 121/246/1 26/245/11 25/248/1
f 199/249/1 158/250/1 165/251/1
f 158/250/1 184/252/1 43/253/1
f 199/249/1 38/254/1 196/247/1
f 38/254/1 199/249/1 165/251/1
f 184/252/1 151/153/1 35/155/1
f 25/248/1 196/247/1 38/254/1
f 158/250/1 43/253/1 165/251/1
f 151/153/1 109/255/1 11/256/1
f 35/155/1 43/253/1 184/252/1
f 151/153/1 11/256/1 21/154/1
f 118/156/13 51/257/13 26/157/11
f 191/159/10 37/258/10 46/160/10
f 42/162/10 36/259/10 29/163/10
f 15/165/10 13/260/10 20/166/10
f 6/168/5 88/206/5 107/169/5
f 141/11/3 103/10/3 7/31/3
f 77/171/9 90/180/9 92/172/9
f 83/25/3 141/11/3 152/29/3
f 82/44/3 83/25/3 28/174/3
f 86/55/3 84/54/3 40/176/3
f 84/54/3 82/44/3 32/175/3
f 85/69/3 86/55/3 49/177/3
f 79/78/3 85/69/3 52/178/3
f 90/180/9 237/261/9 100/181/9
f 80/182/9 92/200/9 91/183/9
f 2/185/1 87/202/1 89/186/1
f 239/188/1 234/262/1 9/189/1
f 243/191/2 247/263/2 248/192/2
f 241/194/2 248/264/2 238/195/2
f 17/197/5 93/265/5 94/198/5
f 92/200/9 100/266/9 99/201/9
f 87/202/1 242/267/1 240/203/1
f 244/204/1 239/188/1 89/190/1
f 88/206/5 96/268/5 98/207/5
f 58/208/2 56/269/2 16/209/2
f 56/269/2 14/270/2 16/209/2
f 16/209/2 12/271/2 54/210/2
