# Blender v3.2.1 OBJ File: 'LAZIENKA.blend'
# www.blender.org
o Plane.040_Plane.028
v 1.420626 0.385050 2.784615
v 1.421144 0.382554 2.783875
v 1.423495 0.385050 2.785521
v 1.379404 0.385050 2.755750
v 1.377571 0.385050 2.753364
v 1.379922 0.382554 2.755011
v 1.429629 0.385050 2.771757
v 1.431461 0.385050 2.774143
v 1.429110 0.382554 2.772497
v 1.388406 0.385050 2.742893
v 1.387888 0.382554 2.743633
v 1.385537 0.385050 2.741987
v 1.420626 0.460916 2.784615
v 1.423495 0.460916 2.785521
v 1.421144 0.463413 2.783875
v 1.379404 0.460916 2.755750
v 1.379922 0.463413 2.755011
v 1.377571 0.460916 2.753364
v 1.429629 0.460916 2.771757
v 1.429110 0.463413 2.772497
v 1.431461 0.460916 2.774143
v 1.388406 0.460916 2.742893
v 1.385537 0.460916 2.741987
v 1.387888 0.463413 2.743633
vt 0.942445 0.030873
vt 0.057555 0.969127
vt 0.057555 0.030873
vt 0.942445 0.030873
vt 0.057555 0.969127
vt 0.057555 0.030873
vt 0.948810 0.030873
vt 0.051190 0.969127
vt 0.051190 0.030873
vt 0.942445 0.051190
vt 0.057555 0.948810
vt 0.057555 0.051190
vt 0.948810 0.057555
vt 0.051190 0.942445
vt 0.051190 0.057555
vt 1.000000 0.051190
vt 0.942445 0.000000
vt 1.000000 0.948810
vt 0.942445 1.000000
vt 0.942445 0.948810
vt 0.000000 0.051190
vt 0.057555 0.000000
vt 0.000000 0.948810
vt 0.057555 1.000000
vt 0.051190 1.000000
vt 0.000000 0.942445
vt 0.948810 1.000000
vt 0.948810 0.942445
vt 1.000000 0.942445
vt 0.051190 0.000000
vt 0.000000 0.057555
vt 0.948810 0.000000
vt 1.000000 0.057555
vt 1.000000 0.969127
vt 1.000000 0.030873
vt 0.000000 0.030873
vt 0.000000 0.969127
vt 1.000000 0.969127
vt 1.000000 0.030873
vt 0.000000 0.030873
vt 0.000000 0.969127
vt 0.948810 0.030873
vt 0.051190 0.969127
vt 0.051190 0.030873
vt 0.942445 0.969127
vt 0.942445 0.969127
vt 0.948810 0.969127
vt 0.948810 0.969127
vn 0.8192 0.0000 0.5736
vn -0.8192 0.0000 -0.5736
vn 0.5736 0.0000 -0.8191
vn 0.0000 -1.0000 0.0000
vn 0.0000 1.0000 0.0000
vn -0.2847 -0.3263 0.9014
vn -0.7497 -0.3263 0.5758
vn 0.7497 -0.3263 -0.5758
vn 0.2847 -0.3263 -0.9014
vn -0.2847 0.3263 0.9014
vn -0.7497 0.3263 0.5758
vn 0.7497 0.3263 -0.5758
vn 0.2846 0.3263 -0.9014
vn -0.5393 -0.3404 0.7702
vn 0.5393 -0.3403 -0.7703
vn -0.5376 -0.7545 -0.3764
vn 0.5376 -0.7545 0.3764
vn -0.5393 0.3403 0.7703
vn 0.5393 0.3403 -0.7703
vn -0.5376 0.7545 -0.3765
vn 0.5376 0.7545 0.3764
vn 0.7931 0.0000 -0.6092
vn -0.3011 0.0000 0.9536
vn -0.7931 0.0000 0.6092
vn 0.3012 0.0000 -0.9536
vn -0.5736 0.0000 0.8192
vn 0.8191 0.0000 0.5736
vn -0.8191 0.0000 -0.5736
vn 0.5736 0.0000 -0.8192
vn -0.5394 -0.3403 0.7703
vn 0.5393 0.3404 -0.7702
vn -0.5376 0.7545 -0.3764
vn -0.3012 0.0000 0.9536
vn -0.7931 0.0000 0.6091
vn 0.3011 0.0000 -0.9536
vn -0.5736 0.0000 0.8191
s off
f 8/1/1 14/2/1 3/3/1
f 5/4/2 23/5/2 12/6/2
f 10/7/3 19/8/3 7/9/3
f 2/10/4 11/11/4 9/12/4
f 24/13/5 15/14/5 20/15/5
f 1/16/6 2/10/6 3/17/6
f 4/18/7 5/19/7 6/20/7
f 7/21/8 8/22/8 9/12/8
f 10/23/9 11/11/9 12/24/9
f 13/25/10 14/26/10 15/14/10
f 16/27/11 17/28/11 18/29/11
f 19/30/12 20/15/12 21/31/12
f 22/32/13 23/33/13 24/13/13
f 4/18/14 2/10/14 1/16/14
f 11/11/15 7/21/15 9/12/15
f 6/20/16 12/24/16 11/11/16
f 9/12/17 3/17/17 2/10/17
f 17/28/18 13/25/18 15/14/18
f 22/32/19 20/15/19 19/30/19
f 18/29/20 24/13/20 23/33/20
f 21/31/21 15/14/21 14/26/21
f 19/34/22 8/1/22 7/35/22
f 1/36/23 14/2/23 13/37/23
f 16/38/24 5/4/24 4/39/24
f 10/40/25 23/5/25 22/41/25
f 16/42/26 1/43/26 13/44/26
f 8/1/27 21/45/27 14/2/27
f 5/4/28 18/46/28 23/5/28
f 10/7/29 22/47/29 19/8/29
f 2/10/4 6/20/4 11/11/4
f 24/13/5 17/28/5 15/14/5
f 4/18/30 6/20/30 2/10/30
f 11/11/15 10/23/15 7/21/15
f 6/20/16 5/19/16 12/24/16
f 9/12/17 8/22/17 3/17/17
f 17/28/18 16/27/18 13/25/18
f 22/32/31 24/13/31 20/15/31
f 18/29/32 17/28/32 24/13/32
f 21/31/21 20/15/21 15/14/21
f 19/34/22 21/45/22 8/1/22
f 1/36/33 3/3/33 14/2/33
f 16/38/34 18/46/34 5/4/34
f 10/40/35 12/6/35 23/5/35
f 16/42/36 4/48/36 1/43/36
