# Blender v3.2.1 OBJ File: 'LAZIENKA.blend'
# www.blender.org
o Plane.043_Plane.042
v -0.112835 0.774910 2.990505
v -0.112835 0.774910 2.994241
v -0.112835 0.778647 2.990505
v -0.112835 0.778647 2.994241
v -0.112835 0.774910 3.060002
v -0.112835 0.778647 3.060002
v -0.112835 0.745389 2.990505
v -0.112835 0.745389 2.994241
v -0.098674 0.774910 2.990505
v -0.098674 0.774910 2.994241
v -0.098674 0.778647 2.990505
v -0.098674 0.778647 2.994241
v -0.098674 0.774910 3.060002
v -0.098674 0.778647 3.060002
v -0.098674 0.745389 2.990505
v -0.098674 0.745389 2.994241
v 0.026262 0.774910 2.990505
v 0.026262 0.774910 2.994241
v 0.026262 0.778647 2.990505
v 0.026262 0.778647 2.994241
v 0.026262 0.774910 3.060002
v 0.026262 0.778647 3.060002
v 0.026262 0.745389 2.990505
v 0.026262 0.745389 2.994241
v 0.040423 0.774910 2.990505
v 0.040423 0.774910 2.994241
v 0.040423 0.778647 2.990505
v 0.040423 0.778647 2.994241
v 0.040423 0.774910 3.060002
v 0.040423 0.778647 3.060002
v 0.040423 0.745389 2.990505
v 0.040423 0.745389 2.994241
vt 1.000000 0.000000
vt 0.000000 1.000000
vt 0.000000 0.000000
vt 1.000000 0.000000
vt 0.000000 1.000000
vt 0.000000 0.000000
vt 1.000000 0.000000
vt 0.000000 1.000000
vt 0.000000 0.000000
vt 1.000000 0.000000
vt 0.000000 1.000000
vt 0.000000 0.000000
vt 1.000000 0.000000
vt 0.000000 1.000000
vt 0.000000 0.000000
vt 1.000000 0.000000
vt 0.000000 1.000000
vt 0.000000 0.000000
vt 0.000000 0.000000
vt 1.000000 1.000000
vt 0.000000 1.000000
vt 0.000000 0.000000
vt 1.000000 1.000000
vt 0.000000 1.000000
vt 1.000000 0.000000
vt 1.000000 0.000000
vt 0.000000 1.000000
vt 0.000000 0.000000
vt 1.000000 0.000000
vt 0.000000 1.000000
vt 0.000000 0.000000
vt 0.000000 0.000000
vt 1.000000 0.000000
vt 0.000000 1.000000
vt 1.000000 0.000000
vt 0.000000 1.000000
vt 0.000000 0.000000
vt 1.000000 0.000000
vt 0.000000 1.000000
vt 0.000000 0.000000
vt 1.000000 0.000000
vt 0.000000 1.000000
vt 0.000000 0.000000
vt 1.000000 0.000000
vt 0.000000 1.000000
vt 0.000000 0.000000
vt 1.000000 0.000000
vt 0.000000 1.000000
vt 0.000000 0.000000
vt 1.000000 0.000000
vt 0.000000 1.000000
vt 0.000000 0.000000
vt 1.000000 0.000000
vt 0.000000 0.000000
vt 0.000000 1.000000
vt 0.000000 0.000000
vt 1.000000 1.000000
vt 0.000000 1.000000
vt 1.000000 0.000000
vt 1.000000 0.000000
vt 0.000000 1.000000
vt 0.000000 0.000000
vt 1.000000 0.000000
vt 0.000000 1.000000
vt 0.000000 0.000000
vt 0.000000 0.000000
vt 1.000000 0.000000
vt 0.000000 1.000000
vt 1.000000 1.000000
vt 1.000000 1.000000
vt 1.000000 1.000000
vt 1.000000 0.000000
vt 1.000000 1.000000
vt 1.000000 0.000000
vt 1.000000 1.000000
vt 1.000000 1.000000
vt 1.000000 1.000000
vt 1.000000 1.000000
vt 1.000000 1.000000
vt 1.000000 1.000000
vt 1.000000 1.000000
vt 1.000000 1.000000
vt 1.000000 0.000000
vt 1.000000 1.000000
vt 1.000000 1.000000
vt 1.000000 1.000000
vn -1.0000 0.0000 0.0000
vn 1.0000 0.0000 0.0000
vn 0.0000 1.0000 -0.0000
vn 0.0000 0.0000 1.0000
vn 0.0000 0.0000 -1.0000
vn 0.0000 -1.0000 0.0000
s off
f 1/1/1 4/2/1 3/3/1
f 4/4/1 5/5/1 6/6/1
f 7/7/1 2/8/1 1/9/1
f 12/10/2 9/11/2 11/12/2
f 13/13/2 12/14/2 14/15/2
f 10/16/2 15/17/2 9/18/2
f 4/19/3 14/20/3 12/14/3
f 4/4/3 11/21/3 3/3/3
f 2/22/4 16/23/4 10/24/4
f 3/25/5 9/11/5 1/9/5
f 2/26/6 13/27/6 5/28/6
f 16/29/6 7/30/6 15/31/6
f 1/1/5 15/17/5 7/32/5
f 5/33/4 14/34/4 6/6/4
f 17/35/1 20/36/1 19/37/1
f 20/38/1 21/39/1 22/40/1
f 23/41/1 18/42/1 17/43/1
f 28/44/2 25/45/2 27/46/2
f 29/47/2 28/48/2 30/49/2
f 26/50/2 31/51/2 25/52/2
f 22/53/3 28/48/3 20/54/3
f 20/38/3 27/55/3 19/37/3
f 18/56/4 32/57/4 26/58/4
f 19/59/5 25/45/5 17/43/5
f 18/60/6 29/61/6 21/62/6
f 32/63/6 23/64/6 31/65/6
f 17/35/5 31/51/5 23/66/5
f 21/67/4 30/68/4 22/40/4
f 1/1/1 2/69/1 4/2/1
f 4/4/1 2/69/1 5/5/1
f 7/7/1 8/70/1 2/8/1
f 12/10/2 10/71/2 9/11/2
f 13/13/2 10/71/2 12/14/2
f 10/16/2 16/23/2 15/17/2
f 4/19/3 6/72/3 14/20/3
f 4/4/3 12/73/3 11/21/3
f 2/22/4 8/74/4 16/23/4
f 3/25/5 11/75/5 9/11/5
f 2/26/6 10/71/6 13/27/6
f 16/29/6 8/70/6 7/30/6
f 1/1/5 9/76/5 15/17/5
f 5/33/4 13/77/4 14/34/4
f 17/35/1 18/78/1 20/36/1
f 20/38/1 18/78/1 21/39/1
f 23/41/1 24/79/1 18/42/1
f 28/44/2 26/80/2 25/45/2
f 29/47/2 26/80/2 28/48/2
f 26/50/2 32/57/2 31/51/2
f 22/53/3 30/81/3 28/48/3
f 20/38/3 28/82/3 27/55/3
f 18/56/4 24/83/4 32/57/4
f 19/59/5 27/84/5 25/45/5
f 18/60/6 26/80/6 29/61/6
f 32/63/6 24/79/6 23/64/6
f 17/35/5 25/85/5 31/51/5
f 21/67/4 29/86/4 30/68/4
