# Blender v3.2.1 OBJ File: 'LAZIENKA.blend'
# www.blender.org
o Plane.005_Plane.008
v 1.607045 0.097351 2.538741
v 1.607045 0.097351 3.343218
v 1.607045 0.366920 2.538741
v 1.607045 0.366920 3.343218
v 1.300932 0.097351 2.538741
v 1.300932 0.097351 3.343218
v 1.300932 0.366920 2.538741
v 1.300932 0.366920 3.343218
v 1.607045 0.097351 2.550953
v 1.607045 0.366920 2.550953
v 1.300932 0.097351 2.550953
v 1.300932 0.366920 2.550953
v 1.300932 0.366920 3.326935
v 1.300932 0.097351 3.326935
v 1.607045 0.366920 3.326935
v 1.607045 0.097351 3.326935
v 1.607045 0.025724 3.343218
v 1.300932 0.025724 3.343218
v 1.300932 0.025724 3.326935
v 1.607045 0.025724 3.326935
v 1.607045 0.025002 2.538741
v 1.300932 0.025002 2.538741
v 1.607045 0.025002 2.550953
v 1.300932 0.025002 2.550953
v 1.607045 0.378114 2.538817
v 1.607045 0.378114 3.343295
v 1.300932 0.378114 2.538817
v 1.300932 0.378114 3.343295
v 1.607045 0.378114 2.551030
v 1.300932 0.378114 2.551030
v 1.300932 0.378114 3.327011
v 1.607045 0.378114 3.327011
vt 1.000000 0.000000
vt 0.000000 1.000000
vt 0.000000 0.000000
vt 1.000000 0.000000
vt 0.000000 1.000000
vt 0.000000 0.000000
vt 1.000000 0.000000
vt 0.000000 1.000000
vt 0.000000 0.000000
vt 0.000000 1.000000
vt 0.000000 0.000000
vt 1.000000 0.000000
vt 0.000000 1.000000
vt 0.000000 0.000000
vt 1.000000 0.000000
vt 0.000000 1.000000
vt 0.000000 0.000000
vt 1.000000 0.000000
vt 0.000000 1.000000
vt 0.000000 0.000000
vt 0.000000 1.000000
vt 0.000000 0.000000
vt 1.000000 0.000000
vt 0.000000 1.000000
vt 0.000000 0.000000
vt 1.000000 0.000000
vt 0.000000 1.000000
vt 0.000000 0.000000
vt 0.000000 1.000000
vt 0.000000 0.000000
vt 0.000000 0.000000
vt 1.000000 0.000000
vt 0.000000 1.000000
vt 1.000000 0.000000
vt 0.000000 1.000000
vt 1.000000 0.000000
vt 0.000000 1.000000
vt 0.000000 0.000000
vt 1.000000 0.000000
vt 0.000000 0.000000
vt 1.000000 0.000000
vt 0.000000 1.000000
vt 0.000000 0.000000
vt 1.000000 0.000000
vt 0.000000 1.000000
vt 0.000000 0.000000
vt 1.000000 0.000000
vt 0.000000 0.000000
vt 0.000000 1.000000
vt 1.000000 0.000000
vt 0.000000 1.000000
vt 0.000000 0.000000
vt 1.000000 0.000000
vt 0.000000 1.000000
vt 1.000000 0.000000
vt 1.000000 0.000000
vt 0.000000 1.000000
vt 0.000000 0.000000
vt 1.000000 1.000000
vt 0.000000 1.000000
vt 0.000000 0.000000
vt 1.000000 1.000000
vt 0.000000 1.000000
vt 1.000000 1.000000
vt 1.000000 0.000000
vt 1.000000 0.000000
vt 0.000000 1.000000
vt 1.000000 1.000000
vt 1.000000 1.000000
vt 1.000000 1.000000
vt 1.000000 1.000000
vt 1.000000 1.000000
vt 1.000000 1.000000
vt 1.000000 1.000000
vt 1.000000 1.000000
vt 1.000000 1.000000
vt 1.000000 1.000000
vt 1.000000 1.000000
vt 1.000000 1.000000
vt 1.000000 1.000000
vt 1.000000 1.000000
vt 1.000000 1.000000
vt 1.000000 1.000000
vt 1.000000 0.000000
vt 1.000000 1.000000
vn 1.0000 0.0000 0.0000
vn -1.0000 0.0000 0.0000
vn 0.0000 0.0000 -1.0000
vn 0.0000 0.0069 -1.0000
vn 0.0000 0.0000 1.0000
vn 0.0000 -1.0000 0.0000
vn 0.0000 1.0000 0.0000
vn 0.0000 -0.0068 1.0000
s off
f 4/1/1 16/2/1 15/3/1
f 14/4/2 8/5/2 13/6/2
f 5/7/3 3/8/3 1/9/3
f 14/4/3 20/10/3 19/11/3
f 3/12/4 27/13/4 25/14/4
f 8/15/5 2/16/5 4/17/5
f 10/18/1 1/19/1 3/20/1
f 5/7/2 12/21/2 7/22/2
f 24/23/5 9/24/5 11/25/5
f 15/26/1 29/27/1 32/28/1
f 10/18/1 25/29/1 29/30/1
f 15/26/1 9/24/1 10/31/1
f 9/32/6 14/33/6 11/25/6
f 20/34/6 18/35/6 19/11/6
f 16/36/1 17/37/1 20/38/1
f 18/39/5 2/16/5 6/40/5
f 19/41/2 6/42/2 14/43/2
f 21/44/6 24/45/6 22/46/6
f 23/47/1 1/19/1 9/48/1
f 5/7/3 21/49/3 22/46/3
f 11/50/2 22/51/2 24/52/2
f 31/53/7 26/54/7 32/28/7
f 27/55/7 29/27/7 25/14/7
f 30/56/7 32/57/7 29/30/7
f 12/58/2 27/59/2 7/60/2
f 31/61/2 8/62/2 28/63/2
f 13/6/2 30/64/2 12/21/2
f 26/65/8 8/5/8 4/17/8
f 32/66/1 4/67/1 15/3/1
f 4/1/1 2/68/1 16/2/1
f 14/4/2 6/69/2 8/5/2
f 5/7/3 7/70/3 3/8/3
f 14/4/3 16/71/3 20/10/3
f 3/12/4 7/70/4 27/13/4
f 8/15/5 6/69/5 2/16/5
f 10/18/1 9/72/1 1/19/1
f 5/7/2 11/73/2 12/21/2
f 24/23/5 23/74/5 9/24/5
f 15/26/1 10/75/1 29/27/1
f 10/18/1 3/76/1 25/29/1
f 15/26/1 16/71/1 9/24/1
f 9/32/6 16/71/6 14/33/6
f 20/34/6 17/77/6 18/35/6
f 16/36/1 2/68/1 17/37/1
f 18/39/5 17/77/5 2/16/5
f 19/41/2 18/78/2 6/42/2
f 21/44/6 23/74/6 24/45/6
f 23/47/1 21/79/1 1/19/1
f 5/7/3 1/80/3 21/49/3
f 11/50/2 5/81/2 22/51/2
f 31/53/7 28/82/7 26/54/7
f 27/55/7 30/64/7 29/27/7
f 30/56/7 31/83/7 32/57/7
f 12/58/2 30/56/2 27/59/2
f 31/61/2 13/84/2 8/62/2
f 13/6/2 31/53/2 30/64/2
f 26/65/8 28/82/8 8/5/8
f 32/66/1 26/85/1 4/67/1
