# Blender v3.2.1 OBJ File: 'LAZIENKA.blend'
# www.blender.org
o Plane_Plane.001
v -0.866363 0.921219 3.406392
v -1.273902 0.921219 3.406392
v -0.866363 0.921219 2.998853
v -1.273902 0.921219 2.998853
v -1.255432 0.921219 3.406392
v -1.255432 0.921219 2.998853
v -0.866363 0.094958 2.998853
v -1.273902 0.094958 2.998853
v -1.255432 0.094958 3.406392
v -1.255432 0.094958 2.998853
v -0.884413 0.094958 2.998853
v -0.884413 0.094958 3.406392
v -0.884413 0.921219 2.998853
v -0.884413 0.921219 3.406392
v -1.273902 0.094958 3.406392
v -0.866363 0.094958 3.406392
v -0.866363 0.903639 3.406392
v -0.884413 0.903639 3.406392
v -1.273902 0.903639 2.998853
v -1.255432 0.903639 2.998853
v -1.255432 0.903639 3.406392
v -0.866363 0.903639 2.998853
v -0.884413 0.903639 2.998853
v -1.273902 0.903639 3.406392
v -0.884413 0.115618 2.998853
v -0.866363 0.115618 2.998853
v -1.273902 0.115618 2.998853
v -0.866363 0.115618 3.406392
v -1.273902 0.115618 3.406392
v -1.255432 0.115618 3.406392
v -1.255432 0.115618 2.998853
v -0.884413 0.115618 3.406392
v -1.273902 0.026192 2.998853
v -1.255432 0.026192 3.406392
v -1.255432 0.026192 2.998853
v -1.273902 0.026192 3.406392
v -0.866363 0.027174 2.998853
v -0.884413 0.027174 2.998853
v -0.884413 0.027174 3.406392
v -0.866363 0.027174 3.406392
vt 1.000000 0.000000
vt 0.000000 1.000000
vt 0.000000 0.000000
vt 1.000000 0.000000
vt 0.000000 1.000000
vt 0.000000 0.000000
vt 1.000000 0.000000
vt 0.000000 1.000000
vt 0.000000 0.000000
vt 1.000000 0.000000
vt 0.000000 1.000000
vt 0.000000 0.000000
vt 1.000000 0.000000
vt 0.000000 1.000000
vt 0.000000 0.000000
vt 1.000000 0.000000
vt 0.000000 1.000000
vt 0.000000 1.000000
vt 0.000000 0.000000
vt 1.000000 0.000000
vt 0.000000 1.000000
vt 0.000000 0.000000
vt 1.000000 0.000000
vt 0.000000 1.000000
vt 0.000000 0.000000
vt 1.000000 0.000000
vt 0.000000 1.000000
vt 0.000000 0.000000
vt 0.000000 1.000000
vt 0.000000 0.000000
vt 1.000000 0.000000
vt 0.000000 1.000000
vt 0.000000 0.000000
vt 1.000000 0.000000
vt 0.000000 1.000000
vt 0.000000 0.000000
vt 1.000000 0.000000
vt 0.000000 1.000000
vt 0.000000 0.000000
vt 1.000000 0.000000
vt 0.000000 0.000000
vt 1.000000 0.000000
vt 0.000000 1.000000
vt 1.000000 0.000000
vt 0.000000 1.000000
vt 0.000000 0.000000
vt 1.000000 0.000000
vt 1.000000 0.000000
vt 0.000000 0.000000
vt 0.000000 1.000000
vt 1.000000 0.000000
vt 0.000000 1.000000
vt 0.000000 0.000000
vt 1.000000 0.000000
vt 0.000000 1.000000
vt 0.000000 1.000000
vt 0.000000 0.000000
vt 1.000000 0.000000
vt 0.000000 1.000000
vt 0.000000 0.000000
vt 1.000000 0.000000
vt 0.000000 1.000000
vt 1.000000 0.000000
vt 0.000000 0.000000
vt 1.000000 0.000000
vt 0.000000 0.000000
vt 0.000000 1.000000
vt 1.000000 0.000000
vt 0.000000 0.000000
vt 1.000000 0.000000
vt 0.000000 1.000000
vt 0.000000 0.000000
vt 0.000000 1.000000
vt 1.000000 0.000000
vt 0.000000 1.000000
vt 0.000000 0.000000
vt 1.000000 0.000000
vt 0.000000 1.000000
vt 0.000000 0.000000
vt 1.000000 0.000000
vt 0.000000 1.000000
vt 0.000000 0.000000
vt 0.000000 0.000000
vt 1.000000 0.000000
vt 0.000000 1.000000
vt 0.000000 1.000000
vt 0.000000 0.000000
vt 1.000000 1.000000
vt 1.000000 1.000000
vt 1.000000 1.000000
vt 1.000000 1.000000
vt 1.000000 1.000000
vt 1.000000 1.000000
vt 1.000000 1.000000
vt 1.000000 1.000000
vt 1.000000 1.000000
vt 1.000000 1.000000
vt 1.000000 1.000000
vt 1.000000 1.000000
vt 1.000000 1.000000
vt 1.000000 1.000000
vt 1.000000 1.000000
vt 1.000000 1.000000
vt 1.000000 1.000000
vt 1.000000 1.000000
vt 1.000000 1.000000
vt 1.000000 1.000000
vt 1.000000 1.000000
vt 1.000000 1.000000
vt 1.000000 1.000000
vt 1.000000 1.000000
vt 1.000000 1.000000
vt 1.000000 1.000000
vn 0.0000 1.0000 0.0000
vn 0.0000 -1.0000 0.0000
vn -1.0000 0.0000 0.0000
vn 0.0000 0.0000 1.0000
vn 0.0000 0.0000 -1.0000
vn 1.0000 0.0000 0.0000
s off
f 4/1/1 5/2/1 6/3/1
f 6/4/1 14/5/1 13/6/1
f 12/7/2 10/8/2 11/9/2
f 13/10/1 1/11/1 3/12/1
f 33/13/3 15/14/3 8/15/3
f 38/16/3 12/17/3 11/9/3
f 12/7/4 28/18/4 32/19/4
f 10/20/5 27/21/5 31/22/5
f 14/23/4 21/24/4 18/25/4
f 16/26/6 26/27/6 28/28/6
f 13/10/5 22/29/5 23/30/5
f 5/31/4 24/32/4 21/33/4
f 11/34/5 31/35/5 25/36/5
f 8/37/3 29/38/3 27/39/3
f 18/40/4 1/11/4 14/41/4
f 20/42/5 4/43/5 6/3/5
f 17/44/6 3/45/6 1/46/6
f 23/47/5 26/27/5 25/36/5
f 21/48/4 29/38/4 30/49/4
f 23/47/5 6/50/5 13/6/5
f 19/51/3 2/52/3 4/53/3
f 32/54/4 17/55/4 18/25/4
f 32/54/4 9/56/4 12/57/4
f 31/58/5 19/59/5 20/60/5
f 25/61/5 7/62/5 11/9/5
f 27/63/3 24/32/3 19/64/3
f 30/65/4 15/14/4 9/66/4
f 25/61/5 20/67/5 23/30/5
f 28/68/6 22/29/6 17/69/6
f 34/70/2 33/71/2 35/72/2
f 10/20/6 34/73/6 35/72/6
f 35/74/5 8/75/5 10/76/5
f 9/77/4 36/78/4 34/79/4
f 40/80/2 38/81/2 37/82/2
f 40/80/6 7/62/6 16/83/6
f 39/84/4 16/85/4 12/57/4
f 11/34/5 37/86/5 38/87/5
f 4/1/1 2/88/1 5/2/1
f 6/4/1 5/89/1 14/5/1
f 12/7/2 9/90/2 10/8/2
f 13/10/1 14/91/1 1/11/1
f 33/13/3 36/92/3 15/14/3
f 38/16/3 39/93/3 12/17/3
f 12/7/4 16/94/4 28/18/4
f 10/20/5 8/95/5 27/21/5
f 14/23/4 5/89/4 21/24/4
f 16/26/6 7/96/6 26/27/6
f 13/10/5 3/97/5 22/29/5
f 5/31/4 2/88/4 24/32/4
f 11/34/5 10/98/5 31/35/5
f 8/37/3 15/99/3 29/38/3
f 18/40/4 17/100/4 1/11/4
f 20/42/5 19/101/5 4/43/5
f 17/44/6 22/102/6 3/45/6
f 23/47/5 22/102/5 26/27/5
f 21/48/4 24/103/4 29/38/4
f 23/47/5 20/104/5 6/50/5
f 19/51/3 24/103/3 2/52/3
f 32/54/4 28/105/4 17/55/4
f 32/54/4 30/106/4 9/56/4
f 31/58/5 27/107/5 19/59/5
f 25/61/5 26/108/5 7/62/5
f 27/63/3 29/109/3 24/32/3
f 30/65/4 29/109/4 15/14/4
f 25/61/5 31/110/5 20/67/5
f 28/68/6 26/108/6 22/29/6
f 34/70/2 36/92/2 33/71/2
f 10/20/6 9/90/6 34/73/6
f 35/74/5 33/111/5 8/75/5
f 9/77/4 15/99/4 36/78/4
f 40/80/2 39/93/2 38/81/2
f 40/80/6 37/112/6 7/62/6
f 39/84/4 40/113/4 16/85/4
f 11/34/5 7/96/5 37/86/5
