# Blender v3.2.1 OBJ File: 'LAZIENKA.blend'
# www.blender.org
o Plane.039_Plane.027
v 1.408436 0.476323 2.777542
v 1.408955 0.475418 2.776801
v 1.410144 0.476323 2.777634
v 1.387026 0.476323 2.762551
v 1.386356 0.476323 2.760977
v 1.387545 0.475418 2.761810
v 1.418813 0.476323 2.762722
v 1.419484 0.476323 2.764296
v 1.418294 0.475418 2.763463
v 1.397403 0.476323 2.747730
v 1.396885 0.475418 2.748471
v 1.395695 0.476323 2.747639
v 1.408436 0.483876 2.777542
v 1.410144 0.483876 2.777634
v 1.408955 0.484781 2.776801
v 1.387026 0.483876 2.762551
v 1.387545 0.484781 2.761810
v 1.386356 0.483876 2.760977
v 1.418813 0.483876 2.762722
v 1.418294 0.484781 2.763463
v 1.419484 0.483876 2.764296
v 1.397403 0.483876 2.747730
v 1.395695 0.483876 2.747639
v 1.396885 0.484781 2.748471
vt 0.950000 0.096614
vt 0.050000 0.903386
vt 0.050000 0.096614
vt 0.950000 0.096614
vt 0.050000 0.903386
vt 0.050000 0.096614
vt 0.950000 0.050000
vt 0.050000 0.950000
vt 0.050000 0.050000
vt 0.950000 0.050000
vt 0.050000 0.950000
vt 0.050000 0.050000
vt 0.950000 0.096614
vt 0.050000 0.903386
vt 0.050000 0.096614
vt 1.000000 0.050000
vt 0.950000 0.000000
vt 1.000000 0.950000
vt 0.950000 1.000000
vt 0.950000 0.950000
vt 0.000000 0.050000
vt 0.050000 0.000000
vt 0.000000 0.950000
vt 0.050000 1.000000
vt 0.050000 1.000000
vt 0.000000 0.950000
vt 0.950000 1.000000
vt 0.950000 0.950000
vt 1.000000 0.950000
vt 0.050000 0.000000
vt 0.000000 0.050000
vt 0.950000 0.000000
vt 1.000000 0.050000
vt 1.000000 0.903386
vt 1.000000 0.096614
vt 0.000000 0.096614
vt 0.000000 0.903385
vt 1.000000 0.903386
vt 0.950000 0.096615
vt 1.000000 0.096615
vt 1.000000 0.903386
vt 1.000000 0.096614
vt 0.050000 0.903386
vt 0.050000 0.096615
vt 0.950000 0.903386
vt 0.950000 0.903386
vt 0.950000 0.903386
vt 0.950000 0.903386
vn 0.8191 0.0000 0.5736
vn -0.8192 0.0000 -0.5736
vn 0.0000 -1.0000 0.0000
vn 0.0000 1.0000 0.0000
vn 0.5736 0.0000 -0.8191
vn -0.0411 -0.6471 0.7613
vn -0.7015 -0.6470 0.2988
vn 0.7015 -0.6470 -0.2988
vn 0.0411 -0.6471 -0.7613
vn -0.0411 0.6471 0.7613
vn -0.7015 0.6470 0.2988
vn 0.7015 0.6470 -0.2988
vn 0.0411 0.6471 -0.7613
vn -0.4055 -0.7072 0.5792
vn 0.4056 -0.7071 -0.5792
vn -0.4331 -0.8488 -0.3033
vn 0.4331 -0.8488 0.3033
vn -0.4056 0.7071 0.5792
vn 0.4055 0.7072 -0.5792
vn -0.4331 0.8488 -0.3033
vn 0.4331 0.8488 0.3033
vn 0.9200 0.0000 -0.3920
vn -0.0539 0.0000 0.9985
vn -0.9200 0.0000 0.3920
vn 0.0536 0.0000 -0.9986
vn -0.5736 0.0000 0.8191
vn 0.8192 0.0000 0.5736
vn -0.4056 -0.7071 0.5793
vn 0.4055 -0.7072 -0.5791
vn 0.4332 -0.8487 0.3033
vn 0.4056 0.7071 -0.5792
vn -0.4331 0.8488 -0.3032
vn 0.4332 0.8488 0.3033
vn -0.0533 0.0000 0.9986
vn -0.9200 0.0000 0.3919
vn -0.5736 0.0000 0.8192
s off
f 8/1/1 14/2/1 3/3/1
f 5/4/2 23/5/2 12/6/2
f 2/7/3 11/8/3 9/9/3
f 24/10/4 15/11/4 20/12/4
f 10/13/5 19/14/5 7/15/5
f 1/16/6 2/7/6 3/17/6
f 4/18/7 5/19/7 6/20/7
f 7/21/8 8/22/8 9/9/8
f 10/23/9 11/8/9 12/24/9
f 13/25/10 14/26/10 15/11/10
f 16/27/11 17/28/11 18/29/11
f 19/30/12 20/12/12 21/31/12
f 22/32/13 23/33/13 24/10/13
f 4/18/14 2/7/14 1/16/14
f 11/8/15 7/21/15 9/9/15
f 6/20/16 12/24/16 11/8/16
f 9/9/17 3/17/17 2/7/17
f 17/28/18 13/25/18 15/11/18
f 22/32/19 20/12/19 19/30/19
f 18/29/20 24/10/20 23/33/20
f 21/31/21 15/11/21 14/26/21
f 19/34/22 8/1/22 7/35/22
f 1/36/23 14/2/23 13/37/23
f 5/38/24 16/39/24 18/40/24
f 23/41/25 10/13/25 12/42/25
f 16/39/26 1/43/26 13/44/26
f 8/1/27 21/45/27 14/2/27
f 5/4/2 18/46/2 23/5/2
f 2/7/3 6/20/3 11/8/3
f 24/10/4 17/28/4 15/11/4
f 10/13/5 22/47/5 19/14/5
f 4/18/28 6/20/28 2/7/28
f 11/8/29 10/23/29 7/21/29
f 6/20/16 5/19/16 12/24/16
f 9/9/30 8/22/30 3/17/30
f 17/28/18 16/27/18 13/25/18
f 22/32/31 24/10/31 20/12/31
f 18/29/32 17/28/32 24/10/32
f 21/31/33 20/12/33 15/11/33
f 19/34/22 21/45/22 8/1/22
f 1/36/34 3/3/34 14/2/34
f 5/38/35 4/48/35 16/39/35
f 23/41/25 22/47/25 10/13/25
f 16/39/36 4/48/36 1/43/36
