# Blender v3.2.1 OBJ File: 'LAZIENKA.blend'
# www.blender.org
o Plane.036_Plane.003
v -0.612212 0.778933 3.092642
v -0.804949 0.778933 3.092642
v -0.612212 0.778933 2.990276
v -0.804949 0.778933 2.990276
v -0.612212 0.781973 3.092642
v -0.804949 0.781973 3.092642
v -0.612212 0.781973 2.990276
v -0.804949 0.781973 2.990276
vt 1.000000 0.000000
vt 0.000000 1.000000
vt 0.000000 0.000000
vt 1.000000 0.000000
vt 0.000000 1.000000
vt 0.000000 0.000000
vt 1.000000 0.000000
vt 0.000000 0.000000
vt 1.000000 0.000000
vt 0.000000 1.000000
vt 0.000000 0.000000
vt 1.000000 0.000000
vt 0.000000 1.000000
vt 1.000000 0.000000
vt 0.000000 1.000000
vt 0.000000 0.000000
vt 1.000000 1.000000
vt 1.000000 1.000000
vt 1.000000 1.000000
vt 1.000000 1.000000
vn 0.0000 -1.0000 0.0000
vn 0.0000 1.0000 0.0000
vn 1.0000 0.0000 0.0000
vn 0.0000 0.0000 1.0000
vn 0.0000 0.0000 -1.0000
vn -1.0000 0.0000 0.0000
s off
f 1/1/1 4/2/1 3/3/1
f 8/4/2 5/5/2 7/6/2
f 3/7/3 5/5/3 1/8/3
f 6/9/4 1/10/4 5/11/4
f 4/12/5 7/13/5 3/3/5
f 2/14/6 8/15/6 4/16/6
f 1/1/1 2/17/1 4/2/1
f 8/4/2 6/18/2 5/5/2
f 3/7/3 7/19/3 5/5/3
f 6/9/4 2/17/4 1/10/4
f 4/12/5 8/20/5 7/13/5
f 2/14/6 6/18/6 8/15/6
