# Blender v3.2.1 OBJ File: 'LAZIENKA.blend'
# www.blender.org
o Plane.003_Plane.004
v -0.080226 0.529044 3.358282
v -0.725366 0.529044 3.358282
v -0.080226 0.529044 2.998853
v -0.725366 0.529044 2.998853
v -0.706896 0.529044 3.358282
v -0.706896 0.529044 2.998853
v -0.080226 0.094958 2.998853
v -0.725366 0.094958 2.998853
v -0.706896 0.094958 3.358282
v -0.706896 0.094958 2.998853
v -0.098276 0.094958 2.998853
v -0.098276 0.094958 3.358282
v -0.098276 0.529044 2.998853
v -0.098276 0.529044 3.358282
v -0.725366 0.094958 3.358282
v -0.080226 0.094958 3.358282
v -0.080226 0.499677 3.358282
v -0.098276 0.499677 3.358282
v -0.725366 0.499677 2.998853
v -0.706896 0.499677 2.998853
v -0.706896 0.499677 3.358282
v -0.080226 0.499677 2.998853
v -0.098276 0.499677 2.998853
v -0.725366 0.499677 3.358282
v -0.098276 0.115723 2.998853
v -0.080226 0.115618 2.998853
v -0.725366 0.115618 2.998853
v -0.080226 0.115618 3.358282
v -0.725366 0.115618 3.358282
v -0.706896 0.115618 3.358282
v -0.706896 0.115618 2.998853
v -0.098276 0.115723 3.358282
v -0.725366 0.026192 2.998853
v -0.706896 0.026192 3.358282
v -0.706896 0.026192 2.998853
v -0.725366 0.026192 3.358282
v -0.080226 0.027174 2.998853
v -0.098276 0.027174 2.998853
v -0.098276 0.027174 3.358282
v -0.080226 0.027174 3.358282
v -0.098276 0.363021 2.998853
v -0.725366 0.363021 2.998853
v -0.080226 0.363021 3.358282
v -0.080226 0.363021 2.998853
v -0.725366 0.363021 3.358282
v -0.706896 0.363021 2.998853
v -0.098276 0.363021 3.358282
v -0.706896 0.363021 3.358282
v -0.115956 0.499677 3.358282
v -0.115956 0.499677 2.998853
v -0.115956 0.363021 2.998853
v -0.115956 0.363021 3.358282
v -0.115956 0.115723 2.998853
v -0.115956 0.115723 3.358282
v -0.080226 0.529044 3.448837
v -0.098276 0.094958 3.448837
v -0.098276 0.529044 3.448837
v -0.080226 0.094958 3.448837
v -0.080226 0.499677 3.448837
v -0.098276 0.499677 3.448837
v -0.080226 0.115618 3.448837
v -0.098276 0.115723 3.448837
v -0.098276 0.027174 3.448837
v -0.080226 0.027174 3.448837
v -0.080226 0.363021 3.448837
v -0.098276 0.363021 3.448837
v -0.117342 0.249636 3.357328
v -0.705257 0.249636 3.357328
v -0.705257 0.117873 3.357328
v -0.117342 0.117872 3.357328
v -0.117342 0.249636 3.348840
v -0.705257 0.249636 3.348840
v -0.705257 0.117873 3.348840
v -0.117342 0.117872 3.348840
v -0.117342 0.361743 3.357328
v -0.705257 0.361743 3.357328
v -0.705257 0.252333 3.357328
v -0.117342 0.252333 3.357328
v -0.117342 0.361743 3.348840
v -0.705257 0.361743 3.348840
v -0.705257 0.252333 3.348840
v -0.117342 0.252333 3.348840
vt 1.000000 0.000000
vt 0.000000 1.000000
vt 0.000000 0.000000
vt 1.000000 0.000000
vt 0.000000 1.000000
vt 0.000000 0.000000
vt 1.000000 0.000000
vt 0.000000 1.000000
vt 0.000000 0.000000
vt 1.000000 0.000000
vt 0.000000 1.000000
vt 0.000000 0.000000
vt 1.000000 0.000000
vt 0.000000 1.000000
vt 0.000000 0.000000
vt 1.000000 0.000000
vt 0.000000 1.000000
vt 1.000000 0.000000
vt 0.000000 1.000000
vt 0.000000 0.000000
vt 1.000000 0.000000
vt 0.000000 1.000000
vt 0.000000 0.000000
vt 1.000000 0.000000
vt 0.000000 1.000000
vt 0.000000 0.000000
vt 1.000000 0.000000
vt 0.000000 1.000000
vt 0.000000 0.000000
vt 0.000000 1.000000
vt 0.000000 0.000000
vt 1.000000 0.000000
vt 0.000000 1.000000
vt 0.000000 0.000000
vt 1.000000 0.000000
vt 0.000000 1.000000
vt 0.000000 0.000000
vt 1.000000 0.000000
vt 0.000000 1.000000
vt 0.000000 0.000000
vt 1.000000 0.000000
vt 0.000000 1.000000
vt 0.000000 0.000000
vt 1.000000 0.000000
vt 0.000000 1.000000
vt 1.000000 0.000000
vt 0.000000 1.000000
vt 0.000000 0.000000
vt 1.000000 0.000000
vt 0.000000 1.000000
vt 0.000000 0.000000
vt 0.000000 1.000000
vt 1.000000 0.000000
vt 0.000000 1.000000
vt 0.000000 0.000000
vt 1.000000 0.000000
vt 0.000000 1.000000
vt 0.000000 0.000000
vt 0.000000 0.000000
vt 1.000000 1.000000
vt 0.000000 1.000000
vt 1.000000 0.000000
vt 0.000000 1.000000
vt 0.000000 0.000000
vt 1.000000 1.000000
vt 0.000000 1.000000
vt 1.000000 0.000000
vt 0.000000 1.000000
vt 0.000000 0.000000
vt 1.000000 0.000000
vt 0.000000 0.000000
vt 1.000000 0.000000
vt 0.000000 1.000000
vt 1.000000 0.000000
vt 0.000000 0.000000
vt 1.000000 0.000000
vt 0.000000 1.000000
vt 0.000000 0.000000
vt 0.000000 1.000000
vt 1.000000 0.000000
vt 0.000000 1.000000
vt 0.000000 0.000000
vt 1.000000 0.000000
vt 0.000000 1.000000
vt 0.000000 0.000000
vt 0.000000 1.000000
vt 0.000000 0.000000
vt 0.000000 0.000000
vt 1.000000 0.000000
vt 0.000000 1.000000
vt 0.000000 0.000000
vt 0.000000 1.000000
vt 0.000000 0.000000
vt 1.000000 1.000000
vt 1.000000 0.000000
vt 0.000000 0.000000
vt 1.000000 0.000000
vt 0.000000 1.000000
vt 1.000000 0.000000
vt 0.000000 0.000000
vt 0.000000 0.000000
vt 0.000000 0.000000
vt 1.000000 0.000000
vt 0.000000 1.000000
vt 0.000000 0.000000
vt 1.000000 0.000000
vt 0.000000 1.000000
vt 1.000000 0.000000
vt 0.000000 1.000000
vt 0.000000 0.000000
vt 1.000000 0.000000
vt 0.000000 1.000000
vt 0.000000 1.000000
vt 1.000000 0.000000
vt 0.000000 0.000000
vt 1.000000 0.000000
vt 0.000000 1.000000
vt 0.000000 0.000000
vt 1.000000 0.000000
vt 0.000000 0.000000
vt 0.000000 0.000000
vt 1.000000 0.000000
vt 0.000000 1.000000
vt 0.000000 0.000000
vt 1.000000 0.000000
vt 0.000000 1.000000
vt 0.000000 0.000000
vt 0.000000 1.000000
vt 0.000000 0.000000
vt 1.000000 0.000000
vt 0.000000 1.000000
vt 1.000000 0.000000
vt 0.000000 1.000000
vt 0.000000 0.000000
vt 1.000000 0.000000
vt 0.000000 1.000000
vt 1.000000 0.000000
vt 0.000000 1.000000
vt 0.000000 0.000000
vt 0.000000 1.000000
vt 1.000000 0.000000
vt 0.000000 1.000000
vt 1.000000 0.000000
vt 1.000000 0.000000
vt 0.000000 1.000000
vt 0.000000 0.000000
vt 1.000000 0.000000
vt 0.000000 1.000000
vt 0.000000 0.000000
vt 1.000000 0.000000
vt 0.000000 1.000000
vt 0.000000 0.000000
vt 1.000000 0.000000
vt 0.000000 0.000000
vt 0.000000 1.000000
vt 0.000000 0.000000
vt 1.000000 0.000000
vt 0.000000 1.000000
vt 1.000000 0.000000
vt 0.000000 1.000000
vt 0.000000 0.000000
vt 1.000000 0.000000
vt 0.000000 1.000000
vt 0.000000 0.000000
vt 1.000000 0.000000
vt 0.000000 1.000000
vt 0.000000 0.000000
vt 1.000000 0.000000
vt 0.000000 0.000000
vt 0.000000 1.000000
vt 0.000000 0.000000
vt 1.000000 0.000000
vt 0.000000 1.000000
vt 1.000000 0.000000
vt 0.000000 1.000000
vt 0.000000 0.000000
vt 1.000000 1.000000
vt 1.000000 1.000000
vt 1.000000 1.000000
vt 1.000000 1.000000
vt 1.000000 1.000000
vt 1.000000 1.000000
vt 1.000000 1.000000
vt 1.000000 1.000000
vt 1.000000 1.000000
vt 1.000000 1.000000
vt 1.000000 1.000000
vt 1.000000 1.000000
vt 1.000000 1.000000
vt 1.000000 1.000000
vt 1.000000 1.000000
vt 1.000000 1.000000
vt 1.000000 1.000000
vt 1.000000 1.000000
vt 1.000000 0.000000
vt 1.000000 1.000000
vt 1.000000 1.000000
vt 1.000000 1.000000
vt 1.000000 1.000000
vt 1.000000 1.000000
vt 1.000000 1.000000
vt 1.000000 1.000000
vt 1.000000 1.000000
vt 1.000000 1.000000
vt 1.000000 1.000000
vt 1.000000 1.000000
vt 1.000000 1.000000
vt 1.000000 1.000000
vt 1.000000 1.000000
vt 1.000000 1.000000
vt 1.000000 1.000000
vt 1.000000 1.000000
vt 1.000000 1.000000
vt 1.000000 1.000000
vt 1.000000 1.000000
vt 1.000000 1.000000
vt 1.000000 1.000000
vt 1.000000 1.000000
vt 1.000000 1.000000
vt 1.000000 1.000000
vt 1.000000 1.000000
vt 1.000000 1.000000
vt 1.000000 1.000000
vt 1.000000 1.000000
vt 1.000000 1.000000
vt 1.000000 1.000000
vt 1.000000 1.000000
vt 1.000000 1.000000
vt 1.000000 1.000000
vt 1.000000 1.000000
vn 0.0000 1.0000 0.0000
vn 0.0000 -1.0000 0.0000
vn -1.0000 0.0000 0.0000
vn 0.0000 0.0000 -1.0000
vn 0.0000 0.0000 1.0000
vn 1.0000 0.0000 0.0000
s off
f 4/1/1 5/2/1 6/3/1
f 6/4/1 14/5/1 13/6/1
f 12/7/2 10/8/2 11/9/2
f 13/10/1 1/11/1 3/12/1
f 33/13/3 15/14/3 8/15/3
f 38/16/3 12/17/3 11/9/3
f 40/18/2 63/19/2 39/20/2
f 10/21/4 27/22/4 31/23/4
f 14/24/5 21/25/5 18/26/5
f 16/27/6 26/28/6 28/29/6
f 13/10/4 22/30/4 23/31/4
f 5/32/5 24/33/5 21/34/5
f 11/35/4 31/36/4 25/37/4
f 8/38/3 29/39/3 27/40/3
f 61/41/6 43/42/6 65/43/6
f 20/44/4 4/45/4 6/3/4
f 17/46/6 3/47/6 1/48/6
f 23/49/4 44/50/4 41/51/4
f 23/49/4 6/52/4 13/6/4
f 19/53/3 2/54/3 4/55/3
f 57/56/3 18/57/3 60/58/3
f 12/59/5 30/60/5 9/61/5
f 31/62/4 42/63/4 46/64/4
f 11/9/4 26/65/4 7/66/4
f 27/67/3 45/68/3 42/69/3
f 30/70/5 15/14/5 9/71/5
f 46/72/5 25/73/5 41/51/5
f 28/74/6 44/50/6 43/75/6
f 34/76/2 33/77/2 35/78/2
f 10/21/6 34/79/6 35/78/6
f 35/80/4 8/81/4 10/82/4
f 9/83/5 36/84/5 34/85/5
f 40/18/2 38/86/2 37/87/2
f 40/18/6 7/66/6 16/88/6
f 60/89/3 47/90/3 66/91/3
f 11/35/4 37/92/4 38/93/4
f 25/37/4 44/94/4 26/28/4
f 48/95/5 29/39/5 30/96/5
f 39/97/3 56/98/3 12/59/3
f 43/99/6 22/30/6 17/100/6
f 48/95/1 42/63/1 45/101/1
f 20/44/2 24/33/2 19/102/2
f 47/103/1 46/104/1 48/105/1
f 18/106/2 50/107/2 23/31/2
f 49/108/3 51/109/3 52/110/3
f 51/111/4 23/112/4 41/51/4
f 47/103/5 49/113/5 52/110/5
f 50/114/2 21/25/2 20/115/2
f 52/116/3 53/117/3 54/118/3
f 54/119/5 47/90/5 52/110/5
f 54/119/2 25/73/2 32/120/2
f 51/111/4 25/73/4 53/121/4
f 41/122/3 32/123/3 47/124/3
f 56/125/5 61/126/5 62/127/5
f 60/89/5 55/128/5 57/129/5
f 62/130/5 65/131/5 66/91/5
f 63/132/5 58/133/5 56/134/5
f 66/135/5 59/136/5 60/58/5
f 1/137/6 59/136/6 17/100/6
f 16/27/6 64/138/6 40/139/6
f 12/7/3 62/140/3 32/120/3
f 17/46/6 65/131/6 43/75/6
f 32/141/3 66/142/3 47/124/3
f 55/143/1 14/5/1 57/129/1
f 58/144/6 28/145/6 61/146/6
f 67/147/5 69/148/5 70/149/5
f 73/150/4 71/151/4 74/152/4
f 74/153/2 69/148/2 73/154/2
f 67/147/1 72/155/1 68/156/1
f 71/157/6 70/158/6 74/152/6
f 68/159/3 73/160/3 69/161/3
f 75/162/5 77/163/5 78/164/5
f 81/165/4 79/166/4 82/167/4
f 82/168/2 77/163/2 81/169/2
f 75/162/1 80/170/1 76/171/1
f 79/172/6 78/173/6 82/167/6
f 76/174/3 81/175/3 77/176/3
f 4/1/1 2/177/1 5/2/1
f 6/4/1 5/178/1 14/5/1
f 12/7/2 9/179/2 10/8/2
f 13/10/1 14/180/1 1/11/1
f 33/13/3 36/181/3 15/14/3
f 38/16/3 39/182/3 12/17/3
f 40/18/2 64/183/2 63/19/2
f 10/21/4 8/184/4 27/22/4
f 14/24/5 5/178/5 21/25/5
f 16/27/6 7/185/6 26/28/6
f 13/10/4 3/186/4 22/30/4
f 5/32/5 2/177/5 24/33/5
f 11/35/4 10/187/4 31/36/4
f 8/38/3 15/188/3 29/39/3
f 61/41/6 28/189/6 43/42/6
f 20/44/4 19/190/4 4/45/4
f 17/46/6 22/191/6 3/47/6
f 23/49/4 22/191/4 44/50/4
f 23/49/4 20/192/4 6/52/4
f 19/53/3 24/193/3 2/54/3
f 57/56/3 14/180/3 18/57/3
f 12/59/5 32/141/5 30/60/5
f 31/62/4 27/194/4 42/63/4
f 11/9/4 25/195/4 26/65/4
f 27/67/3 29/196/3 45/68/3
f 30/70/5 29/196/5 15/14/5
f 46/72/5 31/197/5 25/73/5
f 28/74/6 26/65/6 44/50/6
f 34/76/2 36/181/2 33/77/2
f 10/21/6 9/179/6 34/79/6
f 35/80/4 33/198/4 8/81/4
f 9/83/5 15/188/5 36/84/5
f 40/18/2 39/182/2 38/86/2
f 40/18/6 37/199/6 7/66/6
f 60/89/3 18/200/3 47/90/3
f 11/35/4 7/185/4 37/92/4
f 25/37/4 41/122/4 44/94/4
f 48/95/5 45/201/5 29/39/5
f 39/97/3 63/202/3 56/98/3
f 43/99/6 44/94/6 22/30/6
f 48/95/1 46/203/1 42/63/1
f 20/44/2 21/204/2 24/33/2
f 47/103/1 41/205/1 46/104/1
f 18/106/2 49/206/2 50/107/2
f 49/108/3 50/207/3 51/109/3
f 51/111/4 50/207/4 23/112/4
f 47/103/5 18/200/5 49/113/5
f 50/114/2 49/206/2 21/25/2
f 52/116/3 51/208/3 53/117/3
f 54/119/5 32/209/5 47/90/5
f 54/119/2 53/210/2 25/73/2
f 51/111/4 41/205/4 25/73/4
f 41/122/3 25/211/3 32/123/3
f 56/125/5 58/212/5 61/126/5
f 60/89/5 59/213/5 55/128/5
f 62/130/5 61/214/5 65/131/5
f 63/132/5 64/183/5 58/133/5
f 66/135/5 65/215/5 59/136/5
f 1/137/6 55/216/6 59/136/6
f 16/27/6 58/212/6 64/138/6
f 12/7/3 56/217/3 62/140/3
f 17/46/6 59/213/6 65/131/6
f 32/141/3 62/218/3 66/142/3
f 55/143/1 1/219/1 14/5/1
f 58/144/6 16/220/6 28/145/6
f 67/147/5 68/221/5 69/148/5
f 73/150/4 72/222/4 71/151/4
f 74/153/2 70/223/2 69/148/2
f 67/147/1 71/224/1 72/155/1
f 71/157/6 67/225/6 70/158/6
f 68/159/3 72/222/3 73/160/3
f 75/162/5 76/226/5 77/163/5
f 81/165/4 80/227/4 79/166/4
f 82/168/2 78/228/2 77/163/2
f 75/162/1 79/229/1 80/170/1
f 79/172/6 75/230/6 78/173/6
f 76/174/3 80/227/3 81/175/3
