# Blender v3.2.1 OBJ File: 'LAZIENKA.blend'
# www.blender.org
o Plane.004_Plane.006
v 0.596553 0.814159 2.533693
v 0.219476 0.814159 2.533693
v 0.596553 0.814159 2.242111
v 0.219476 0.814159 2.242111
v 0.596553 0.435513 2.533693
v 0.219476 0.435513 2.533693
v 0.596553 0.435513 2.242111
v 0.219476 0.435513 2.242111
v 0.695492 0.435513 2.242111
v 1.072569 0.435513 2.242111
v 0.695492 0.435513 2.533693
v 1.072569 0.435513 2.533693
v 0.695492 0.814159 2.242111
v 1.072569 0.814159 2.242111
v 0.695492 0.814159 2.533693
v 1.072569 0.814159 2.533693
v 1.542600 0.814159 2.533693
v 1.165523 0.814159 2.533693
v 1.542600 0.814159 2.242111
v 1.165523 0.814159 2.242111
v 1.542600 0.435513 2.533693
v 1.165523 0.435513 2.533693
v 1.542600 0.435513 2.242111
v 1.165523 0.435513 2.242111
vt 1.000000 0.000000
vt 0.000000 1.000000
vt 0.000000 0.000000
vt 1.000000 0.000000
vt 0.000000 1.000000
vt 0.000000 0.000000
vt 0.000000 1.000000
vt 0.000000 0.000000
vt 1.000000 0.000000
vt 0.000000 1.000000
vt 0.000000 0.000000
vt 1.000000 0.000000
vt 0.000000 1.000000
vt 1.000000 0.000000
vt 0.000000 1.000000
vt 0.000000 0.000000
vt 1.000000 0.000000
vt 0.000000 1.000000
vt 0.000000 0.000000
vt 1.000000 0.000000
vt 0.000000 1.000000
vt 0.000000 0.000000
vt 1.000000 0.000000
vt 0.000000 1.000000
vt 0.000000 0.000000
vt 1.000000 0.000000
vt 0.000000 1.000000
vt 0.000000 0.000000
vt 0.000000 1.000000
vt 0.000000 0.000000
vt 1.000000 0.000000
vt 0.000000 1.000000
vt 1.000000 0.000000
vt 0.000000 1.000000
vt 0.000000 0.000000
vt 1.000000 0.000000
vt 0.000000 1.000000
vt 0.000000 0.000000
vt 0.000000 1.000000
vt 0.000000 0.000000
vt 1.000000 0.000000
vt 0.000000 1.000000
vt 0.000000 0.000000
vt 1.000000 0.000000
vt 0.000000 1.000000
vt 1.000000 0.000000
vt 0.000000 1.000000
vt 0.000000 0.000000
vt 1.000000 1.000000
vt 1.000000 1.000000
vt 1.000000 1.000000
vt 1.000000 1.000000
vt 1.000000 1.000000
vt 1.000000 1.000000
vt 1.000000 1.000000
vt 1.000000 1.000000
vt 1.000000 1.000000
vt 1.000000 1.000000
vt 1.000000 1.000000
vt 1.000000 1.000000
vn 0.0000 1.0000 0.0000
vn 0.0000 -1.0000 0.0000
vn 1.0000 0.0000 0.0000
vn 0.0000 0.0000 1.0000
vn 0.0000 0.0000 -1.0000
vn -1.0000 0.0000 0.0000
s off
f 4/1/1 1/2/1 3/3/1
f 5/4/2 8/5/2 7/6/2
f 5/4/3 3/7/3 1/8/3
f 1/9/4 6/10/4 5/11/4
f 7/12/5 4/13/5 3/3/5
f 8/14/6 2/15/6 4/16/6
f 9/17/6 15/18/6 13/19/6
f 10/20/5 13/21/5 14/22/5
f 16/23/4 11/24/4 12/25/4
f 12/26/3 14/27/3 16/28/3
f 12/26/2 9/29/2 10/30/2
f 13/31/1 16/32/1 14/22/1
f 20/33/1 17/34/1 19/35/1
f 21/36/2 24/37/2 23/38/2
f 21/36/3 19/39/3 17/40/3
f 17/41/4 22/42/4 21/43/4
f 23/44/5 20/45/5 19/35/5
f 24/46/6 18/47/6 20/48/6
f 4/1/1 2/49/1 1/2/1
f 5/4/2 6/50/2 8/5/2
f 5/4/3 7/51/3 3/7/3
f 1/9/4 2/49/4 6/10/4
f 7/12/5 8/52/5 4/13/5
f 8/14/6 6/50/6 2/15/6
f 9/17/6 11/53/6 15/18/6
f 10/20/5 9/54/5 13/21/5
f 16/23/4 15/55/4 11/24/4
f 12/26/3 10/56/3 14/27/3
f 12/26/2 11/53/2 9/29/2
f 13/31/1 15/55/1 16/32/1
f 20/33/1 18/57/1 17/34/1
f 21/36/2 22/58/2 24/37/2
f 21/36/3 23/59/3 19/39/3
f 17/41/4 18/57/4 22/42/4
f 23/44/5 24/60/5 20/45/5
f 24/46/6 22/58/6 18/47/6
