# Blender v3.2.1 OBJ File: 'LAZIENKA.blend'
# www.blender.org
o Plane.038_Plane.026
v 1.422193 0.382371 2.788334
v 1.425368 0.382371 2.789337
v 1.422767 0.379609 2.787515
v 1.375372 0.382371 2.755550
v 1.375946 0.379609 2.754731
v 1.373344 0.382371 2.752909
v 1.433660 0.382371 2.771958
v 1.433087 0.379609 2.772777
v 1.435688 0.382371 2.774598
v 1.386839 0.382371 2.739174
v 1.383664 0.382371 2.738171
v 1.386266 0.379609 2.739992
v 1.422193 0.464325 2.788334
v 1.422767 0.467087 2.787515
v 1.425368 0.464325 2.789337
v 1.375372 0.464325 2.755550
v 1.373344 0.464325 2.752909
v 1.375946 0.467087 2.754731
v 1.433660 0.464325 2.771958
v 1.435688 0.464325 2.774598
v 1.433087 0.467087 2.772777
v 1.386839 0.464325 2.739174
v 1.386266 0.467087 2.739992
v 1.383664 0.464325 2.738171
v 1.422341 0.383290 2.786836
v 1.422915 0.380528 2.786017
v 1.425516 0.383290 2.787838
v 1.376730 0.383290 2.754898
v 1.374702 0.383290 2.752258
v 1.377303 0.380528 2.754080
v 1.432303 0.383290 2.772609
v 1.434330 0.383290 2.775250
v 1.431729 0.380528 2.773428
v 1.386691 0.383290 2.740672
v 1.386118 0.380528 2.741491
v 1.383517 0.383290 2.739669
v 1.422341 0.463406 2.786836
v 1.425516 0.463406 2.787838
v 1.422915 0.466168 2.786017
v 1.376730 0.463406 2.754898
v 1.377303 0.466168 2.754080
v 1.374702 0.463406 2.752258
v 1.432303 0.463406 2.772609
v 1.431729 0.466168 2.773428
v 1.434330 0.463406 2.775250
v 1.386691 0.463406 2.740672
v 1.383517 0.463406 2.739669
v 1.386118 0.466168 2.741491
vt 0.968424 0.050000
vt 0.031575 0.950000
vt 0.031575 0.050000
vt 0.948810 0.032253
vt 0.051190 0.967747
vt 0.051190 0.032253
vt 0.968424 0.050000
vt 0.031575 0.950000
vt 0.031575 0.050000
vt 0.968424 0.050000
vt 0.031575 0.950000
vt 0.031575 0.050000
vt 0.950000 0.050000
vt 0.050000 0.950000
vt 0.050000 0.050000
vt 0.950000 0.050000
vt 0.050000 0.950000
vt 0.050000 0.050000
vt 0.942445 0.032253
vt 0.057555 0.967747
vt 0.057555 0.032253
vt 0.942445 0.032253
vt 0.057555 0.967747
vt 0.057555 0.032253
vt 0.948810 0.032253
vt 0.051190 0.967747
vt 0.051190 0.032253
vt 0.942445 0.051190
vt 0.057555 0.948810
vt 0.057555 0.051190
vt 0.948810 0.057555
vt 0.051190 0.942445
vt 0.051190 0.057555
vt 0.050000 1.000000
vt 0.000000 0.950000
vt 0.950000 1.000000
vt 0.950000 0.950000
vt 1.000000 0.950000
vt 0.050000 0.000000
vt 0.000000 0.050000
vt 0.950000 0.000000
vt 1.000000 0.050000
vt 1.000000 0.050000
vt 0.950000 0.000000
vt 1.000000 0.950000
vt 0.950000 1.000000
vt 0.950000 0.950000
vt 0.000000 0.050000
vt 0.050000 0.000000
vt 0.000000 0.950000
vt 0.050000 1.000000
vt 1.000000 0.051190
vt 0.942445 0.000000
vt 1.000000 0.948810
vt 0.942445 1.000000
vt 0.942445 0.948810
vt 0.000000 0.051190
vt 0.057555 0.000000
vt 0.000000 0.948810
vt 0.057555 1.000000
vt 0.051190 1.000000
vt 0.000000 0.942445
vt 0.948810 1.000000
vt 0.948810 0.942445
vt 1.000000 0.942445
vt 0.051190 0.000000
vt 0.000000 0.057555
vt 0.948810 0.000000
vt 1.000000 0.057555
vt 0.968424 0.950000
vt 0.031576 1.000000
vt 0.968424 0.000000
vt 0.968424 0.950000
vt 0.031576 1.000000
vt 0.968424 0.000000
vt 1.000000 0.967747
vt 1.000000 0.032253
vt 0.000000 0.032253
vt 0.000000 0.967747
vt 1.000000 0.967747
vt 1.000000 0.032253
vt 0.000000 0.032253
vt 0.000000 0.967747
vt 0.968424 0.050000
vt 0.031575 0.950000
vt 0.031575 0.050000
vt 0.948810 0.967747
vt 0.968424 0.950000
vt 0.942445 0.967747
vt 0.942445 0.967747
vt 0.948810 0.967747
vt 0.968425 1.000000
vt 0.031575 0.000000
vt 0.968425 1.000000
vt 0.031575 0.000000
vt 0.968424 0.950000
vn -0.8191 0.0000 -0.5736
vn -0.5736 0.0000 0.8192
vn 0.8191 0.0000 0.5736
vn 0.0000 1.0000 -0.0000
vn 0.0000 -1.0000 0.0000
vn 0.5736 0.0000 -0.8192
vn 0.2846 0.3263 -0.9014
vn 0.7497 0.3263 -0.5757
vn -0.7497 0.3263 0.5758
vn -0.2845 0.3263 0.9014
vn 0.2846 -0.3263 -0.9014
vn 0.7497 -0.3263 -0.5757
vn -0.7497 -0.3263 0.5758
vn -0.2846 -0.3263 0.9014
vn -0.2846 -0.3262 0.9014
vn -0.7497 -0.3262 0.5758
vn 0.7497 -0.3262 -0.5758
vn 0.2846 -0.3262 -0.9014
vn -0.2846 0.3262 0.9014
vn -0.7497 0.3262 0.5758
vn 0.7497 0.3262 -0.5758
vn 0.2846 0.3262 -0.9014
vn 0.5393 0.3403 -0.7703
vn -0.5393 0.3403 0.7703
vn 0.5376 0.7545 0.3764
vn -0.5376 0.7545 -0.3764
vn 0.5393 -0.3403 -0.7703
vn -0.5394 -0.3403 0.7703
vn 0.5376 -0.7545 0.3765
vn -0.5376 -0.7545 -0.3764
vn -0.7931 0.0000 0.6091
vn 0.3011 0.0000 -0.9536
vn 0.7931 0.0000 -0.6091
vn -0.3012 0.0000 0.9536
vn -0.5394 -0.3402 0.7703
vn 0.5376 -0.7545 0.3764
vn -0.5394 0.3402 0.7703
vn 0.5394 0.3402 -0.7703
vn -0.3012 0.0000 0.9535
vn 0.3012 0.0000 -0.9535
vn -0.8192 0.0000 -0.5736
vn 0.8192 0.0000 0.5736
vn 0.5394 0.3403 -0.7703
vn 0.5376 0.7545 0.3765
vn -0.5376 0.7545 -0.3765
vn 0.5394 -0.3403 -0.7703
vn -0.5393 -0.3403 0.7703
vn 0.3013 0.0000 -0.9535
vn 0.5394 -0.3402 -0.7703
vn -0.3010 0.0000 0.9536
vn -0.7930 0.0000 0.6092
vn 0.3010 0.0000 -0.9536
s off
f 15/1/1 9/2/1 2/3/1
f 40/4/2 25/5/2 37/6/2
f 24/7/3 6/8/3 11/9/3
f 19/10/2 10/11/2 7/12/2
f 12/13/4 3/14/4 8/15/4
f 14/16/5 23/17/5 21/18/5
f 32/19/3 38/20/3 27/21/3
f 29/22/1 47/23/1 36/24/1
f 34/25/6 43/26/6 31/27/6
f 26/28/5 35/29/5 33/30/5
f 48/31/4 39/32/4 44/33/4
f 1/34/7 2/35/7 3/14/7
f 4/36/8 5/37/8 6/38/8
f 7/39/9 8/15/9 9/40/9
f 10/41/10 11/42/10 12/13/10
f 13/43/11 14/16/11 15/44/11
f 16/45/12 17/46/12 18/47/12
f 19/48/13 20/49/13 21/18/13
f 22/50/14 23/17/14 24/51/14
f 25/52/15 26/28/15 27/53/15
f 28/54/16 29/55/16 30/56/16
f 31/57/17 32/58/17 33/30/17
f 34/59/18 35/29/18 36/60/18
f 37/61/19 38/62/19 39/32/19
f 40/63/20 41/64/20 42/65/20
f 43/66/21 44/33/21 45/67/21
f 46/68/22 47/69/22 48/31/22
f 5/37/23 1/34/23 3/14/23
f 10/41/24 8/15/24 7/39/24
f 6/38/25 12/13/25 11/42/25
f 9/40/26 3/14/26 2/35/26
f 16/45/27 14/16/27 13/43/27
f 23/17/28 19/48/28 21/18/28
f 18/47/29 24/51/29 23/17/29
f 21/18/30 15/44/30 14/16/30
f 20/70/31 7/71/31 9/2/31
f 2/3/32 13/72/32 15/1/32
f 17/73/33 4/74/33 6/8/33
f 11/9/34 22/75/34 24/7/34
f 28/54/35 26/28/35 25/52/35
f 35/29/27 31/57/27 33/30/27
f 30/56/30 36/60/30 35/29/30
f 33/30/36 27/53/36 26/28/36
f 41/64/37 37/61/37 39/32/37
f 46/68/38 44/33/38 43/66/38
f 42/65/26 48/31/26 47/69/26
f 45/67/25 39/32/25 38/62/25
f 43/76/33 32/19/33 31/77/33
f 25/78/39 38/20/39 37/79/39
f 40/80/31 29/22/31 28/81/31
f 34/82/40 47/23/40 46/83/40
f 1/84/6 16/85/6 13/86/6
f 15/1/41 20/70/41 9/2/41
f 40/4/2 28/87/2 25/5/2
f 24/7/42 17/73/42 6/8/42
f 19/10/2 22/88/2 10/11/2
f 12/13/4 5/37/4 3/14/4
f 14/16/5 18/47/5 23/17/5
f 32/19/42 45/89/42 38/20/42
f 29/22/41 42/90/41 47/23/41
f 34/25/6 46/91/6 43/26/6
f 26/28/5 30/56/5 35/29/5
f 48/31/4 41/64/4 39/32/4
f 5/37/43 4/36/43 1/34/43
f 10/41/24 12/13/24 8/15/24
f 6/38/44 5/37/44 12/13/44
f 9/40/45 8/15/45 3/14/45
f 16/45/46 18/47/46 14/16/46
f 23/17/47 22/50/47 19/48/47
f 18/47/36 17/46/36 24/51/36
f 21/18/30 20/49/30 15/44/30
f 20/70/31 19/92/31 7/71/31
f 2/3/48 1/93/48 13/72/48
f 17/73/33 16/94/33 4/74/33
f 11/9/34 10/95/34 22/75/34
f 28/54/47 30/56/47 26/28/47
f 35/29/49 34/59/49 31/57/49
f 30/56/30 29/55/30 36/60/30
f 33/30/36 32/58/36 27/53/36
f 41/64/37 40/63/37 37/61/37
f 46/68/23 48/31/23 44/33/23
f 42/65/26 41/64/26 48/31/26
f 45/67/25 44/33/25 39/32/25
f 43/76/33 45/89/33 32/19/33
f 25/78/50 27/21/50 38/20/50
f 40/80/51 42/90/51 29/22/51
f 34/82/52 36/24/52 47/23/52
f 1/84/6 4/96/6 16/85/6
