# Blender v3.2.1 OBJ File: 'LAZIENKA.blend'
# www.blender.org
o Plane.013_Plane.022
v 0.150218 1.018494 2.990516
v 0.150218 1.018494 2.461221
v 0.150218 0.526570 2.990516
v 0.150218 0.526570 2.461221
v 0.146640 1.018494 2.990516
v 0.146640 1.018494 2.461221
v 0.146640 0.526570 2.990516
v 0.146640 0.526570 2.461221
v 0.150218 1.018494 2.450635
v 0.150218 1.018494 2.251421
v 0.150218 0.526570 2.450635
v 0.150218 0.526570 2.251421
v 0.146640 1.018494 2.450635
v 0.146640 1.018494 2.251421
v 0.146640 0.526570 2.450635
v 0.146640 0.526570 2.251421
v 0.150218 0.516732 2.990516
v 0.150218 0.516732 2.461221
v 0.150218 0.024808 2.990516
v 0.150218 0.024808 2.461221
v 0.146640 0.516732 2.990516
v 0.146640 0.516732 2.461221
v 0.146640 0.024808 2.990516
v 0.146640 0.024808 2.461221
v 0.150218 0.516732 2.450635
v 0.150218 0.516732 2.251421
v 0.150218 0.024808 2.450635
v 0.150218 0.024808 2.251421
v 0.146640 0.516732 2.450635
v 0.146640 0.516732 2.251421
v 0.146640 0.024808 2.450635
v 0.146640 0.024808 2.251421
vt 0.000000 1.000000
vt 0.000000 0.000000
vt 0.998301 0.000000
vt 0.998301 0.000000
vt 0.000000 0.000000
vt 0.000000 1.000000
vt 0.998301 1.000000
vt 0.998301 1.000000
vt 0.728950 1.000000
vt 0.728950 0.000000
vt 0.998488 0.000000
vt 0.998488 0.000000
vt 0.728950 0.000000
vt 0.728950 1.000000
vt 0.998488 1.000000
vt 0.998488 1.000000
vt 0.000000 1.000000
vt 0.000000 0.000000
vt 0.998301 0.000000
vt 0.998301 0.000000
vt 0.000000 0.000000
vt 0.000000 1.000000
vt 0.998301 1.000000
vt 0.728950 1.000000
vt 0.728950 0.000000
vt 0.998488 0.000000
vt 0.998488 0.000000
vt 0.728950 0.000000
vt 0.728950 1.000000
vt 0.998488 1.000000
vt 0.998488 1.000000
vt 0.998301 1.000000
vn 1.0000 -0.0000 0.0000
vn -1.0000 0.0000 -0.0000
vn 0.0000 0.0000 1.0000
vn 0.0000 -1.0000 0.0000
vn 0.0000 0.0000 -1.0000
vn 0.0000 1.0000 0.0000
s off
f 1/1/1 3/2/1 4/3/1
f 8/4/2 7/5/2 5/6/2
f 3/2/3 1/1/3 5/6/3
f 4/3/4 3/2/4 7/5/4
f 2/7/5 4/3/5 8/4/5
f 6/8/6 5/6/6 1/1/6
f 9/9/1 11/10/1 12/11/1
f 16/12/2 15/13/2 13/14/2
f 11/10/3 9/9/3 13/14/3
f 12/11/4 11/10/4 15/13/4
f 10/15/5 12/11/5 16/12/5
f 14/16/6 13/14/6 9/9/6
f 17/17/1 19/18/1 20/19/1
f 24/20/2 23/21/2 21/22/2
f 19/18/3 17/17/3 21/22/3
f 20/19/4 19/18/4 23/21/4
f 20/19/5 24/20/5 22/23/5
f 22/23/6 21/22/6 17/17/6
f 25/24/1 27/25/1 28/26/1
f 32/27/2 31/28/2 29/29/2
f 27/25/3 25/24/3 29/29/3
f 28/26/4 27/25/4 31/28/4
f 26/30/5 28/26/5 32/27/5
f 30/31/6 29/29/6 25/24/6
f 1/1/1 4/3/1 2/7/1
f 8/4/2 5/6/2 6/8/2
f 3/2/3 5/6/3 7/5/3
f 4/3/4 7/5/4 8/4/4
f 2/7/5 8/4/5 6/8/5
f 6/8/6 1/1/6 2/7/6
f 9/9/1 12/11/1 10/15/1
f 16/12/2 13/14/2 14/16/2
f 11/10/3 13/14/3 15/13/3
f 12/11/4 15/13/4 16/12/4
f 10/15/5 16/12/5 14/16/5
f 14/16/6 9/9/6 10/15/6
f 17/17/1 20/19/1 18/32/1
f 24/20/2 21/22/2 22/23/2
f 19/18/3 21/22/3 23/21/3
f 20/19/4 23/21/4 24/20/4
f 20/19/5 22/23/5 18/32/5
f 22/23/6 17/17/6 18/32/6
f 25/24/1 28/26/1 26/30/1
f 32/27/2 29/29/2 30/31/2
f 27/25/3 29/29/3 31/28/3
f 28/26/4 31/28/4 32/27/4
f 26/30/5 32/27/5 30/31/5
f 30/31/6 25/24/6 26/30/6
