# Blender v3.2.1 OBJ File: 'LAZIENKA.blend'
# www.blender.org
o Plane.007_Plane.012
v 1.300932 0.097351 3.364610
v 1.300932 0.264762 3.364610
v 1.300932 0.264762 4.137149
v 1.300932 0.097351 4.137149
v 1.311183 0.097351 3.364610
v 1.311183 0.264762 3.364610
v 1.311183 0.264762 4.137149
v 1.311183 0.097351 4.137149
v 1.300932 0.266734 3.364610
v 1.300932 0.365129 3.364610
v 1.300932 0.365129 4.137149
v 1.300932 0.266734 4.137149
v 1.311183 0.266734 3.364610
v 1.311183 0.365129 3.364610
v 1.311183 0.365129 4.137149
v 1.311183 0.266734 4.137149
vt 1.000000 0.000000
vt 0.000000 1.000000
vt 0.000000 0.000000
vt 1.000000 0.000000
vt 0.000000 1.000000
vt 0.000000 0.000000
vt 0.000000 1.000000
vt 0.000000 0.000000
vt 1.000000 0.000000
vt 0.000000 1.000000
vt 1.000000 0.000000
vt 0.000000 1.000000
vt 0.000000 0.000000
vt 0.000000 0.000000
vt 1.000000 1.000000
vt 1.000000 0.000000
vt 0.000000 1.000000
vt 0.000000 0.000000
vt 1.000000 0.000000
vt 0.000000 1.000000
vt 0.000000 0.000000
vt 0.000000 1.000000
vt 0.000000 0.000000
vt 1.000000 0.000000
vt 0.000000 1.000000
vt 1.000000 0.000000
vt 0.000000 1.000000
vt 0.000000 0.000000
vt 0.000000 0.000000
vt 1.000000 1.000000
vt 1.000000 1.000000
vt 1.000000 1.000000
vt 1.000000 1.000000
vt 1.000000 1.000000
vt 1.000000 0.000000
vt 1.000000 1.000000
vt 1.000000 1.000000
vt 1.000000 1.000000
vt 1.000000 1.000000
vt 1.000000 0.000000
vn -1.0000 0.0000 0.0000
vn 1.0000 0.0000 0.0000
vn 0.0000 -1.0000 0.0000
vn 0.0000 0.0000 -1.0000
vn 0.0000 0.0000 1.0000
vn 0.0000 1.0000 0.0000
s off
f 1/1/1 3/2/1 2/3/1
f 7/4/2 5/5/2 6/6/2
f 1/1/3 8/7/3 4/8/3
f 5/9/4 2/10/4 6/6/4
f 4/11/5 7/12/5 3/13/5
f 7/14/6 2/15/6 3/2/6
f 9/16/1 11/17/1 10/18/1
f 15/19/2 13/20/2 14/21/2
f 9/16/3 16/22/3 12/23/3
f 13/24/4 10/25/4 14/21/4
f 12/26/5 15/27/5 11/28/5
f 15/29/6 10/30/6 11/17/6
f 1/1/1 4/31/1 3/2/1
f 7/4/2 8/32/2 5/5/2
f 1/1/3 5/33/3 8/7/3
f 5/9/4 1/34/4 2/10/4
f 4/11/5 8/32/5 7/12/5
f 7/14/6 6/35/6 2/15/6
f 9/16/1 12/36/1 11/17/1
f 15/19/2 16/37/2 13/20/2
f 9/16/3 13/38/3 16/22/3
f 13/24/4 9/39/4 10/25/4
f 12/26/5 16/37/5 15/27/5
f 15/29/6 14/40/6 10/30/6
