# Blender v3.2.1 OBJ File: 'LAZIENKA.blend'
# www.blender.org
o Plane.019_Plane.024
v 1.709647 0.868398 3.340258
v 1.709647 0.868398 3.964231
v 1.082515 1.995299 3.340258
v 1.082515 1.995299 3.964231
v 1.741800 0.868472 3.340258
v 1.741800 0.868472 3.964231
v 1.114668 1.993922 3.340258
v 1.114668 1.993922 3.964231
vt 1.000000 0.000000
vt 0.000000 1.000000
vt 0.000000 0.000000
vt 1.000000 0.000000
vt 0.000000 1.000000
vt 0.000000 0.000000
vt 1.000000 1.000000
vt 1.000000 1.000000
vn -0.8738 -0.4863 -0.0000
vn 0.8735 0.4868 0.0000
s off
f 1/1/1 4/2/1 3/3/1
f 7/4/2 6/5/2 5/6/2
f 1/1/1 2/7/1 4/2/1
f 7/4/2 8/8/2 6/5/2
