# Blender v3.2.1 OBJ File: 'LAZIENKA.blend'
# www.blender.org
o plytki.001_Plane.007
v 0.961860 2.022018 2.248800
v 0.686821 2.022018 2.248800
v 0.686821 1.530094 2.248800
v 1.216116 1.530094 2.248800
v 1.216116 1.565071 2.248800
v 0.961860 2.022018 2.245222
v 0.686821 2.022018 2.245222
v 0.686821 1.530094 2.245222
v 1.216116 1.530094 2.245222
v 1.216116 1.565071 2.245222
v 1.226702 1.028332 2.248800
v 1.514771 1.028332 2.248800
v 1.241052 1.520256 2.248800
v 1.226702 1.520256 2.248800
v 1.241052 1.520256 2.245222
v 1.226702 1.520256 2.245222
v 1.226702 1.028332 2.245222
v 1.514771 1.028332 2.245222
v 0.676235 1.530094 2.248800
v 0.676235 2.022018 2.248800
v 0.146941 2.022018 2.248800
v 0.146941 1.530094 2.248800
v 0.676235 1.530094 2.245222
v 0.676235 2.022018 2.245222
v 0.146941 2.022018 2.245222
v 0.146941 1.530094 2.245222
v 0.676235 1.028332 2.248800
v 0.676235 1.520256 2.248800
v 0.146941 1.520256 2.248800
v 0.146941 1.028332 2.248800
v 0.676235 1.520256 2.245222
v 0.676235 1.028332 2.245222
v 0.146941 1.520256 2.245222
v 0.146941 1.028332 2.245222
v 1.215822 1.028332 2.248800
v 1.215822 1.520256 2.248800
v 0.686528 1.520256 2.248800
v 0.686528 1.028332 2.248800
v 1.215822 1.520256 2.245222
v 1.215822 1.028332 2.245222
v 0.686528 1.520256 2.245222
v 0.686528 1.028332 2.245222
vt 1.000000 1.000000
vt 0.000000 1.000000
vt 0.000000 0.000000
vt 1.000000 1.000000
vt 1.000000 0.000000
vt 0.000000 0.000000
vt 1.000000 0.000000
vt 0.000000 1.000000
vt 1.000000 0.071103
vt 0.519632 1.000000
vt 0.000000 0.000000
vt 0.000000 1.000000
vt 1.000000 0.071103
vt 1.000000 0.000000
vt 0.000000 0.000000
vt 0.000000 1.000000
vt 0.519632 1.000000
vt 1.000000 0.000000
vt 1.000000 1.000000
vt 0.000000 1.000000
vt 0.000000 0.000000
vt 1.000000 1.000000
vt 1.000000 0.000000
vt 0.000000 0.000000
vt 1.000000 0.000000
vt 0.000000 1.000000
vt 0.049817 1.000000
vt 0.000000 1.000000
vt 0.000000 0.000000
vt 0.000000 0.000000
vt 0.000000 1.000000
vt 0.049817 1.000000
vt 1.000000 0.000000
vt 1.000000 0.000000
vt 1.000000 1.000000
vt 0.000000 1.000000
vt 0.000000 0.000000
vt 1.000000 1.000000
vt 1.000000 0.000000
vt 0.000000 0.000000
vt 1.000000 0.000000
vt 0.000000 1.000000
vn 0.0000 0.0000 1.0000
vn 0.0000 0.0000 -1.0000
vn -1.0000 0.0000 0.0000
vn 0.0000 -1.0000 0.0000
vn 1.0000 0.0000 0.0000
vn 0.0000 1.0000 0.0000
vn 0.8739 0.4862 0.0000
vn 0.8738 0.4862 0.0000
s off
f 20/1/1 21/2/1 22/3/1
f 24/4/2 23/5/2 26/6/2
f 26/6/3 22/3/3 21/2/3
f 23/5/4 19/7/4 22/3/4
f 24/4/5 20/1/5 19/7/5
f 25/8/6 21/2/6 20/1/6
f 5/9/1 1/10/1 3/11/1
f 1/10/1 2/12/1 3/11/1
f 10/13/2 9/14/2 8/15/2
f 8/15/2 7/16/2 6/17/2
f 8/15/3 3/11/3 2/12/3
f 9/14/4 4/18/4 3/11/4
f 5/9/5 4/18/5 9/14/5
f 7/16/6 2/12/6 1/10/6
f 28/19/1 29/20/1 30/21/1
f 31/22/2 32/23/2 34/24/2
f 34/24/3 30/21/3 29/20/3
f 32/23/4 27/25/4 30/21/4
f 32/23/5 31/22/5 28/19/5
f 28/19/6 31/22/6 33/26/6
f 13/27/1 14/28/1 11/29/1
f 17/30/2 16/31/2 15/32/2
f 17/30/3 11/29/3 14/28/3
f 12/33/4 11/29/4 17/30/4
f 13/27/6 15/32/6 16/31/6
f 12/33/7 18/34/7 15/32/7
f 10/13/8 6/17/8 1/10/8
f 36/35/1 37/36/1 38/37/1
f 39/38/2 40/39/2 42/40/2
f 42/40/3 38/37/3 37/36/3
f 40/39/4 35/41/4 38/37/4
f 40/39/5 39/38/5 36/35/5
f 36/35/6 39/38/6 41/42/6
f 20/1/1 22/3/1 19/7/1
f 24/4/2 26/6/2 25/8/2
f 26/6/3 21/2/3 25/8/3
f 23/5/4 22/3/4 26/6/4
f 24/4/5 19/7/5 23/5/5
f 25/8/6 20/1/6 24/4/6
f 5/9/1 3/11/1 4/18/1
f 10/13/2 8/15/2 6/17/2
f 8/15/3 2/12/3 7/16/3
f 9/14/4 3/11/4 8/15/4
f 5/9/5 9/14/5 10/13/5
f 7/16/6 1/10/6 6/17/6
f 28/19/1 30/21/1 27/25/1
f 31/22/2 34/24/2 33/26/2
f 34/24/3 29/20/3 33/26/3
f 32/23/4 30/21/4 34/24/4
f 32/23/5 28/19/5 27/25/5
f 28/19/6 33/26/6 29/20/6
f 13/27/1 11/29/1 12/33/1
f 17/30/2 15/32/2 18/34/2
f 17/30/3 14/28/3 16/31/3
f 12/33/4 17/30/4 18/34/4
f 13/27/6 16/31/6 14/28/6
f 12/33/7 15/32/7 13/27/7
f 10/13/7 1/10/7 5/9/7
f 36/35/1 38/37/1 35/41/1
f 39/38/2 42/40/2 41/42/2
f 42/40/3 37/36/3 41/42/3
f 40/39/4 38/37/4 42/40/4
f 40/39/5 36/35/5 35/41/5
f 36/35/6 41/42/6 37/36/6
